<?xml version="1.0" standalone="no"?>
<!DOCTYPE svg PUBLIC "-//W3C//DTD SVG 20010904//EN"
 "http://www.w3.org/TR/2001/REC-SVG-20010904/DTD/svg10.dtd">
<svg version="1.0" xmlns="http://www.w3.org/2000/svg"
 width="512.000000pt" height="512.000000pt" viewBox="0 0 512.000000 512.000000"
 preserveAspectRatio="xMidYMid meet">

<g transform="translate(0.000000,512.000000) scale(0.100000,-0.100000)"
fill="#FFFFFF" stroke="none">
<path d="M1120 5107 c-49 -16 -133 -102 -148 -153 -17 -60 -17 -2168 0 -2228
13 -45 105 -146 132 -146 14 0 16 -104 16 -1050 l0 -1050 -55 0 c-46 0 -60 -4
-80 -25 -25 -24 -25 -26 -25 -215 0 -189 0 -191 25 -215 l24 -25 1151 0 1151
0 24 25 c25 24 25 26 25 215 0 189 0 191 -25 215 -20 21 -34 25 -80 25 l-55 0
0 240 0 240 135 0 c131 0 137 -1 160 -25 l25 -24 0 -352 c0 -247 4 -364 12
-393 16 -55 99 -138 154 -154 53 -16 255 -16 308 0 55 16 138 99 154 154 15
53 17 2765 2 2832 -22 93 -51 134 -204 290 -134 135 -155 152 -184 152 -44 0
-82 -38 -82 -81 0 -27 20 -52 149 -183 155 -158 171 -183 171 -263 l0 -33 -56
0 c-87 0 -133 -18 -189 -75 -66 -65 -75 -98 -75 -277 0 -228 24 -270 212 -364
l108 -54 0 -951 0 -950 -25 -24 c-23 -24 -31 -25 -135 -25 -104 0 -112 1 -135
25 l-25 24 0 352 c0 243 -4 364 -12 391 -6 22 -31 62 -55 88 -61 68 -102 80
-275 80 l-138 0 0 730 c0 656 2 730 16 730 27 0 119 101 132 146 17 59 17
2169 0 2226 -6 22 -31 62 -55 88 -77 85 -2 80 -1137 79 -699 -1 -1012 -4
-1036 -12z m2055 -172 l25 -24 0 -1071 0 -1071 -25 -24 -24 -25 -991 0 -991 0
-24 25 -25 24 0 1071 0 1071 25 24 24 25 991 0 991 0 24 -25z m825 -2430 l0
-215 -70 35 c-38 19 -74 44 -80 54 -5 11 -10 81 -10 156 0 131 1 137 25 160
20 21 34 25 80 25 l55 0 0 -215z m-960 -985 l0 -1040 -880 0 -880 0 0 1040 0
1040 880 0 880 0 0 -1040z m160 -1280 l0 -80 -1040 0 -1040 0 0 80 0 80 1040
0 1040 0 0 -80z"/>
<path d="M1305 4615 l-25 -24 0 -751 0 -751 25 -24 24 -25 831 0 831 0 24 25
25 24 0 751 0 751 -25 24 -24 25 -831 0 -831 0 -24 -25z m1575 -775 l0 -640
-720 0 -720 0 0 640 0 640 720 0 720 0 0 -640z"/>
<path d="M1625 4295 c-25 -24 -25 -26 -25 -215 0 -189 0 -191 25 -215 l24 -25
511 0 511 0 24 25 c25 24 25 26 25 215 0 189 0 191 -25 215 l-24 25 -511 0
-511 0 -24 -25z m935 -215 l0 -80 -400 0 -400 0 0 80 0 80 400 0 400 0 0 -80z"/>
<path d="M2265 3655 c-24 -23 -25 -31 -25 -135 0 -104 1 -112 25 -135 15 -16
36 -25 55 -25 19 0 40 9 55 25 24 23 25 31 25 135 0 104 -1 112 -25 135 -15
16 -36 25 -55 25 -19 0 -40 -9 -55 -25z"/>
<path d="M2585 3655 c-24 -23 -25 -31 -25 -135 0 -104 1 -112 25 -135 15 -16
36 -25 55 -25 19 0 40 9 55 25 24 23 25 31 25 135 0 104 -1 112 -25 135 -15
16 -36 25 -55 25 -19 0 -40 -9 -55 -25z"/>
<path d="M1465 2375 c-25 -24 -25 -26 -25 -215 0 -189 0 -191 25 -215 l24 -25
671 0 671 0 24 25 c25 24 25 26 25 215 0 189 0 191 -25 215 l-24 25 -671 0
-671 0 -24 -25z m1255 -215 l0 -80 -560 0 -560 0 0 80 0 80 560 0 560 0 0 -80z"/>
</g>
</svg>
