<?xml version="1.0" standalone="no"?>
<!DOCTYPE svg PUBLIC "-//W3C//DTD SVG 20010904//EN"
 "http://www.w3.org/TR/2001/REC-SVG-20010904/DTD/svg10.dtd">
<svg version="1.0" xmlns="http://www.w3.org/2000/svg"
 width="512.000000pt" height="512.000000pt" viewBox="0 0 512.000000 512.000000"
 preserveAspectRatio="xMidYMid meet">

<g transform="translate(0.000000,512.000000) scale(0.100000,-0.100000)"
fill="#FFFFFF" stroke="none">
<path d="M955 5106 c-131 -33 -245 -126 -306 -251 l-34 -70 0 -2225 0 -2225
33 -67 c63 -130 186 -229 320 -257 37 -8 493 -11 1555 -11 1636 0 1553 -3
1668 56 102 51 185 151 220 265 18 59 19 119 19 1676 l0 1616 -87 88 -87 89
127 128 c124 126 127 130 127 173 l0 43 -447 449 c-247 247 -460 455 -475 463
-58 30 -73 22 -213 -116 l-131 -130 -79 81 c-44 45 -119 116 -167 160 l-88 79
-952 -1 c-727 0 -965 -4 -1003 -13z m2576 -878 l699 -693 0 -1570 0 -1571 -26
-52 c-14 -28 -43 -65 -64 -82 -81 -64 24 -60 -1619 -60 -1646 0 -1546 -4
-1623 60 -20 17 -48 53 -62 82 l-26 52 0 2166 0 2166 26 52 c14 29 42 65 62
82 74 61 33 58 1025 59 l909 1 699 -692z m664 -218 l-80 -80 -365 365 -365
365 80 80 80 80 365 -365 365 -365 -80 -80z"/>
<path d="M1164 4562 c-42 -34 -44 -48 -44 -376 l0 -316 29 -32 29 -33 772 -3
c842 -3 822 -4 849 54 7 17 11 127 11 345 l0 321 -29 29 -29 29 -784 0 c-727
0 -785 -2 -804 -18z m1446 -372 l0 -190 -645 0 -645 0 0 190 0 190 645 0 645
0 0 -190z"/>
<path d="M1194 3399 c-17 -5 -39 -18 -50 -30 -18 -21 -19 -56 -22 -1326 l-2
-1305 34 -34 34 -34 1316 2 1316 3 27 28 28 27 3 443 c2 300 0 454 -8 480 -13
45 -47 69 -97 69 -29 0 -43 -7 -65 -31 l-28 -31 0 -320 c0 -176 -3 -320 -7
-320 -4 0 -68 61 -143 135 -146 145 -159 152 -220 120 -37 -19 -50 -43 -50
-91 0 -35 10 -48 137 -176 l137 -138 -1034 0 -1034 0 131 133 c78 78 134 143
138 160 19 76 -46 141 -122 122 -15 -3 -84 -63 -160 -137 l-133 -131 0 1023 0
1024 138 -137 c133 -131 140 -137 180 -137 56 0 91 31 99 88 l6 43 -137 137
c-75 76 -136 141 -136 145 0 4 464 7 1032 7 l1032 0 -137 -139 c-132 -134
-137 -140 -137 -181 0 -59 41 -100 100 -100 41 0 47 5 181 137 l139 137 0
-287 c0 -282 0 -286 23 -312 14 -17 36 -28 63 -32 36 -5 46 -1 75 25 l34 30 3
414 c2 378 1 416 -15 448 -12 24 -29 39 -53 47 -43 14 -2566 17 -2616 2z"/>
<path d="M2480 2759 c-40 -16 -258 -244 -344 -359 -82 -110 -176 -289 -196
-374 -6 -27 -11 -88 -11 -136 1 -374 368 -654 735 -560 108 27 190 74 272 155
147 144 208 355 158 549 -36 142 -154 332 -327 527 -160 179 -225 224 -287
198z m246 -460 c72 -94 140 -212 165 -286 61 -185 -26 -379 -209 -466 -61 -29
-76 -32 -163 -32 -90 0 -99 2 -171 38 -88 43 -146 102 -187 187 -23 48 -26 68
-26 155 0 80 5 111 23 156 35 86 149 252 258 373 l98 109 82 -86 c45 -47 103
-114 130 -148z"/>
<path d="M3753 2173 c-35 -7 -73 -59 -73 -100 0 -50 45 -93 97 -93 49 0 78 21
93 64 16 49 -7 102 -54 121 -20 8 -37 14 -38 14 -2 -1 -13 -4 -25 -6z"/>
</g>
</svg>
