<?xml version="1.0" encoding="UTF-8"?>
<svg version="1.1" xmlns="http://www.w3.org/2000/svg" width="800" height="600">
<path d="M0 0 C0.91616089 -0.00637985 1.83232178 -0.0127597 2.77624512 -0.01933289 C3.76467407 -0.02044571 4.75310303 -0.02155853 5.77148438 -0.02270508 C6.80599731 -0.02603348 7.84051025 -0.02936188 8.90637207 -0.03279114 C11.10538286 -0.03785755 13.30440135 -0.04019955 15.50341797 -0.04003906 C18.79733877 -0.04219195 22.09090561 -0.06025589 25.38476562 -0.0793457 C37.7293521 -0.11269369 49.80378062 0.42995139 62.06103516 1.881073 C65.80808339 2.31069522 69.56265821 2.65268863 73.31835938 2.99682617 C74.71160177 3.12689293 76.10483117 3.25709883 77.49804688 3.38745117 C78.87044133 3.51507011 80.24283718 3.64267413 81.61523438 3.77026367 C83.06576083 3.90562011 84.51628167 4.04103672 85.96679688 4.17651367 C89.43287898 4.50011642 92.89903384 4.82293157 96.36523438 5.14526367 C96.36523438 5.80526367 96.36523438 6.46526367 96.36523438 7.14526367 C96.95949219 7.19424805 97.55375 7.24323242 98.16601562 7.29370117 C104.64869412 7.87845289 110.97927838 8.8947818 117.36523438 10.14526367 C117.36523438 10.80526367 117.36523438 11.46526367 117.36523438 12.14526367 C117.9453125 12.19424805 118.52539062 12.24323242 119.12304688 12.29370117 C123.80446529 12.74175772 127.94008897 13.44328467 132.36523438 15.14526367 C132.36523438 15.80526367 132.36523438 16.46526367 132.36523438 17.14526367 C133.60273438 17.28963867 134.84023438 17.43401367 136.11523438 17.58276367 C138.93027937 17.93214869 141.63538407 18.34905733 144.36523438 19.14526367 C144.36523438 19.80526367 144.36523438 20.46526367 144.36523438 21.14526367 C144.95949219 21.30381836 145.55375 21.46237305 146.16601562 21.62573242 C152.89020932 23.51854589 159.0756305 26.12003595 165.36523438 29.14526367 C165.36523438 29.80526367 165.36523438 30.46526367 165.36523438 31.14526367 C168.66523438 32.13526367 171.96523438 33.12526367 175.36523438 34.14526367 C175.36523438 34.80526367 175.36523438 35.46526367 175.36523438 36.14526367 C178.33523438 37.13526367 181.30523437 38.12526367 184.36523438 39.14526367 C184.36523438 39.80526367 184.36523438 40.46526367 184.36523438 41.14526367 C187.33523438 42.13526367 190.30523437 43.12526367 193.36523438 44.14526367 C193.36523438 44.80526367 193.36523438 45.46526367 193.36523438 46.14526367 C194.06648438 46.22776367 194.76773437 46.31026367 195.49023438 46.39526367 C199.02503525 47.31738564 201.34512175 49.11131027 204.36523438 51.14526367 C207.59015517 52.38850514 207.59015517 52.38850514 210.36523438 53.14526367 C210.36523438 53.80526367 210.36523438 54.46526367 210.36523438 55.14526367 C211.31398438 55.45463867 212.26273438 55.76401367 213.24023438 56.08276367 C216.36523438 57.14526367 216.36523438 57.14526367 218.36523438 58.14526367 C218.36523438 58.80526367 218.36523438 59.46526367 218.36523438 60.14526367 C219.27273438 60.26901367 220.18023438 60.39276367 221.11523438 60.52026367 C223.9549376 61.06636045 225.89114029 61.7179017 228.36523438 63.14526367 C228.36523438 63.80526367 228.36523438 64.46526367 228.36523438 65.14526367 C231.99523437 66.13526367 235.62523437 67.12526367 239.36523438 68.14526367 C239.36523438 68.80526367 239.36523438 69.46526367 239.36523438 70.14526367 C244.20962236 72.05487719 248.67712433 72.48070272 253.82617188 72.55932617 C254.61673981 72.57869232 255.40730774 72.59805847 256.22183228 72.61801147 C258.7278592 72.6774242 261.23393303 72.72403794 263.74023438 72.77026367 C265.44728481 72.8084788 267.15431668 72.84753256 268.86132812 72.88745117 C273.02914481 72.98309378 277.19705168 73.06726482 281.36523438 73.14526367 C281.36523438 73.80526367 281.36523438 74.46526367 281.36523438 75.14526367 C281.91832275 75.12955322 282.47141113 75.11384277 283.04125977 75.09765625 C297.89893422 74.74265385 312.56024224 75.43058138 327.36523438 76.58276367 C328.24946075 76.65024811 329.13368713 76.71773254 330.04470825 76.78726196 C332.56879197 76.98210732 335.09208719 77.18476795 337.61523438 77.39135742 C338.38391342 77.45183258 339.15259247 77.51230774 339.94456482 77.57461548 C345.24843615 78.02846544 345.24843615 78.02846544 346.36523438 79.14526367 C348.63400542 79.39401928 350.90543172 79.61865613 353.17773438 79.83276367 C360.84758576 80.71258105 366.65281833 83.32693521 373.36523438 87.14526367 C375.27632962 88.11465981 377.19267226 89.07381304 379.11523438 90.02026367 C380.53190104 90.72859701 381.94856771 91.43693034 383.36523438 92.14526367 C383.36523438 92.80526367 383.36523438 93.46526367 383.36523438 94.14526367 C384.01105469 94.11045898 384.656875 94.0756543 385.32226562 94.03979492 C395.21490045 93.75560158 404.66095465 95.43990908 414.36523438 97.14526367 C414.36523438 97.80526367 414.36523438 98.46526367 414.36523438 99.14526367 C416.09773437 99.33088867 416.09773437 99.33088867 417.86523438 99.52026367 C422.14873812 100.04805253 426.19876109 101.02924404 430.36523438 102.14526367 C430.36523438 102.80526367 430.36523438 103.46526367 430.36523438 104.14526367 C433.66523437 105.13526367 436.96523438 106.12526367 440.36523438 107.14526367 C440.36523438 107.80526367 440.36523438 108.46526367 440.36523438 109.14526367 C441.43837891 109.28641602 441.43837891 109.28641602 442.53320312 109.43041992 C445.83482967 110.263796 447.91174353 111.61173909 450.67773438 113.58276367 C451.56074219 114.20022461 452.44375 114.81768555 453.35351562 115.45385742 C454.01738281 116.01202148 454.68125 116.57018555 455.36523438 117.14526367 C455.36523438 117.80526367 455.36523438 118.46526367 455.36523438 119.14526367 C456.09742188 119.37987305 456.82960938 119.61448242 457.58398438 119.85620117 C464.86781246 123.23213273 470.8710143 132.01452496 474.36523438 139.14526367 C475.17773438 142.14526367 475.17773438 142.14526367 475.36523438 144.14526367 C476.02523437 144.14526367 476.68523438 144.14526367 477.36523438 144.14526367 C477.57019531 145.28866211 477.77515625 146.43206055 477.98632812 147.61010742 C478.25825748 149.10103044 478.53040412 150.59191383 478.80273438 152.08276367 C478.93744141 152.83750977 479.07214844 153.59225586 479.2109375 154.36987305 C479.60795472 158.06479541 479.60795472 158.06479541 481.36523438 161.14526367 C481.46404234 162.62179031 481.49602683 164.10293603 481.49804688 165.58276367 C481.49933594 166.47737305 481.500625 167.37198242 481.50195312 168.29370117 C481.49808594 169.2347168 481.49421875 170.17573242 481.49023438 171.14526367 C481.49410156 172.0862793 481.49796875 173.02729492 481.50195312 173.99682617 C481.50066406 174.89143555 481.499375 175.78604492 481.49804688 176.70776367 C481.49635498 177.94719727 481.49635498 177.94719727 481.49462891 179.21166992 C481.36523438 181.14526367 481.36523438 181.14526367 480.36523438 182.14526367 C479.96321047 184.38720721 479.61862488 186.63957149 479.30273438 188.89526367 C479.12613281 190.12760742 478.94953125 191.35995117 478.76757812 192.62963867 C478.43693017 195.51879553 478.28219509 198.24442461 478.36523438 201.14526367 C480.67523437 202.13526367 482.98523438 203.12526367 485.36523438 204.14526367 C485.36523438 204.80526367 485.36523438 205.46526367 485.36523438 206.14526367 C486.32429687 206.57838867 486.32429687 206.57838867 487.30273438 207.02026367 C489.36523438 208.14526367 489.36523438 208.14526367 490.36523438 210.14526367 C490.60351562 212.42260742 490.60351562 212.42260742 490.67773438 215.08276367 C490.71511719 215.95803711 490.7525 216.83331055 490.79101562 217.73510742 C490.36523438 220.14526367 490.36523438 220.14526367 488.47070312 221.96166992 C486.36523438 223.14526367 486.36523438 223.14526367 484.36523438 223.14526367 C484.36523438 223.80526367 484.36523438 224.46526367 484.36523438 225.14526367 C482.92955705 225.46603323 481.49151456 225.77621175 480.05273438 226.08276367 C479.25222656 226.25678711 478.45171875 226.43081055 477.62695312 226.61010742 C467.87978981 228.2093426 458.14600999 228.28157018 448.29101562 228.24291992 C446.87184194 228.24104996 445.45266761 228.2396288 444.03349304 228.2386322 C440.33629508 228.23485248 436.63913772 228.2250622 432.94195557 228.21392822 C429.15401763 228.20361521 425.36607299 228.1991136 421.578125 228.1940918 C414.17380981 228.18343485 406.76952783 228.16641455 399.36523438 228.14526367 C400.10962038 223.2372241 401.72268177 221.5336847 405.36523438 218.14526367 C406.74391718 216.51591126 408.0779753 214.8477676 409.36523438 213.14526367 C410.04585937 212.27901367 410.72648438 211.41276367 411.42773438 210.52026367 C414.04860963 205.95486807 415.16789518 201.243026 416.36523438 196.14526367 C417.02523437 196.14526367 417.68523438 196.14526367 418.36523438 196.14526367 C418.42387829 192.47866553 418.45904545 188.81219003 418.49023438 185.14526367 C418.50699219 184.11530273 418.52375 183.0853418 418.54101562 182.02416992 C418.57941992 175.99469575 418.09765432 170.91999683 416.36523438 165.14526367 C416.06552734 163.84975586 416.06552734 163.84975586 415.75976562 162.52807617 C414.21740958 156.54497689 411.65756112 152.25388945 407.88867188 147.37182617 C406.36523438 145.14526367 406.36523438 145.14526367 405.84179688 142.91870117 C405.68453125 142.3334668 405.52726563 141.74823242 405.36523438 141.14526367 C404.37523437 140.81526367 403.38523437 140.48526367 402.36523438 140.14526367 C402.36523438 139.48526367 402.36523438 138.82526367 402.36523438 138.14526367 C401.70523438 138.14526367 401.04523437 138.14526367 400.36523438 138.14526367 C398.4750666 136.3770422 396.71766441 134.56482323 395.05273438 132.58276367 C392.45651204 130.37116687 389.52776721 129.39834272 386.36523438 128.14526367 C386.36523438 127.48526367 386.36523438 126.82526367 386.36523438 126.14526367 C381.74523437 125.15526367 377.12523437 124.16526367 372.36523438 123.14526367 C372.36523438 122.48526367 372.36523438 121.82526367 372.36523438 121.14526367 C363.12523437 121.14526367 353.88523437 121.14526367 344.36523438 121.14526367 C344.36523438 121.80526367 344.36523438 122.46526367 344.36523438 123.14526367 C343.54539062 123.32702148 342.72554687 123.5087793 341.88085938 123.69604492 C340.80320312 123.94741211 339.72554687 124.1987793 338.61523438 124.45776367 C337.54789063 124.70139648 336.48054687 124.9450293 335.38085938 125.19604492 C332.41160026 126.13066923 330.73775448 127.19173166 328.36523438 129.14526367 C327.51960937 129.47526367 326.67398438 129.80526367 325.80273438 130.14526367 C323.31133539 131.16737608 322.19058007 132.23299675 320.36523438 134.14526367 C319.70523438 134.14526367 319.04523437 134.14526367 318.36523438 134.14526367 C318.36523438 134.80526367 318.36523438 135.46526367 318.36523438 136.14526367 C317.70523438 136.14526367 317.04523437 136.14526367 316.36523438 136.14526367 C316.36523438 136.80526367 316.36523438 137.46526367 316.36523438 138.14526367 C314.88023437 139.13526367 314.88023437 139.13526367 313.36523438 140.14526367 C313.03523437 141.13526367 312.70523438 142.12526367 312.36523438 143.14526367 C311.45644531 144.01731445 311.45644531 144.01731445 310.52929688 144.90698242 C307.90296014 147.62339208 306.36606796 150.59459022 304.74023438 153.95776367 C304.44117188 154.54879883 304.14210938 155.13983398 303.83398438 155.7487793 C296.79984667 170.01936397 296.76044385 186.13437173 301.36523438 201.14526367 C303.59083829 208.16771274 303.59083829 208.16771274 308.36523438 213.14526367 C308.67460938 214.30026367 308.98398437 215.45526367 309.30273438 216.64526367 C309.65335938 217.80026367 310.00398437 218.95526367 310.36523438 220.14526367 C311.35523438 220.47526367 312.34523438 220.80526367 313.36523438 221.14526367 C313.69523438 222.79526367 314.02523437 224.44526367 314.36523438 226.14526367 C284.73329368 226.28055983 255.10964906 226.11446467 225.48027039 225.73954391 C222.93636364 225.70787111 220.39244224 225.6778363 217.84851074 225.64822388 C213.78655431 225.60059144 209.72468332 225.54826975 205.66283226 225.49238586 C204.16049136 225.47226729 202.65813192 225.45347934 201.155756 225.43617249 C199.06868498 225.41170905 196.98175528 225.38178383 194.89477539 225.35058594 C193.72511734 225.33504166 192.55545929 225.31949738 191.35035706 225.30348206 C188.10537803 225.17464905 184.91597293 224.94202436 181.6836853 224.65110779 C175.36611844 224.10422656 169.07915679 223.93218377 162.74047852 223.84643555 C161.51029181 223.8269989 160.28010509 223.80756226 159.01264 223.78753662 C155.59673925 223.73551864 152.18083973 223.68779477 148.76484179 223.64288902 C146.55579282 223.61358792 144.346768 223.5828254 142.137743 223.55177307 C113.50505505 223.15330227 84.87131931 222.99169443 56.23632812 222.86401367 C54.6106934 222.85676081 54.6106934 222.85676081 52.95221758 222.84936142 C33.92378255 222.76515065 14.89530852 222.69053929 -4.13317871 222.61920166 C-16.59783918 222.57240872 -29.0624827 222.52347594 -41.5271067 222.46771479 C-47.87429628 222.43956052 -54.22148102 222.41591376 -60.56870091 222.3957901 C-64.46938009 222.38243648 -68.37003334 222.36503524 -72.27069092 222.34647942 C-74.07673938 222.33871872 -75.88279602 222.33265117 -77.68885612 222.32838631 C-80.14703074 222.32235039 -82.60510475 222.31031093 -85.06324768 222.29675293 C-86.13661931 222.29630895 -86.13661931 222.29630895 -87.23167521 222.295856 C-90.5089381 222.27168363 -93.49992141 222.15244285 -96.63476562 221.14526367 C-96.30476562 220.15526367 -95.97476563 219.16526367 -95.63476562 218.14526367 C-94.83039063 217.83588867 -94.02601563 217.52651367 -93.19726562 217.20776367 C-90.0918677 215.92015965 -89.9472263 215.12017454 -88.63476562 212.14526367 C-87.76851563 211.30995117 -87.76851563 211.30995117 -86.88476562 210.45776367 C-82.93165352 206.3948429 -79.43370101 201.54206983 -77.63476562 196.14526367 C-76.97476563 196.14526367 -76.31476563 196.14526367 -75.63476562 196.14526367 C-75.48007812 195.15526367 -75.48007812 195.15526367 -75.32226562 194.14526367 C-74.60932307 191.03424162 -73.56306423 188.25067077 -72.35351562 185.30541992 C-70.17570869 178.7601632 -70.51772971 172.0830581 -70.57226562 165.27026367 C-70.5790332 163.66538086 -70.5790332 163.66538086 -70.5859375 162.02807617 C-70.59766814 159.40041381 -70.61408334 156.77286829 -70.63476562 154.14526367 C-71.29476562 154.14526367 -71.95476562 154.14526367 -72.63476562 154.14526367 C-72.76753906 153.54198242 -72.9003125 152.93870117 -73.03710938 152.31713867 C-73.30201172 151.11831055 -73.30201172 151.11831055 -73.57226562 149.89526367 C-73.74628906 149.10635742 -73.9203125 148.31745117 -74.09960938 147.50463867 C-74.58232162 145.37647664 -75.0963974 143.25993525 -75.63476562 141.14526367 C-76.29476562 141.14526367 -76.95476562 141.14526367 -77.63476562 141.14526367 C-78.25351562 139.81495117 -78.25351562 139.81495117 -78.88476562 138.45776367 C-80.53596124 135.33228626 -82.42795732 132.88474985 -84.63476562 130.14526367 C-84.63476562 129.48526367 -84.63476562 128.82526367 -84.63476562 128.14526367 C-85.29476562 128.14526367 -85.95476562 128.14526367 -86.63476562 128.14526367 C-87.96809896 126.81193034 -89.30143229 125.47859701 -90.63476562 124.14526367 C-92.74055618 122.56390371 -94.87245604 121.02893429 -97.02539062 119.51245117 C-97.82203125 118.83569336 -97.82203125 118.83569336 -98.63476562 118.14526367 C-98.63476562 117.48526367 -98.63476562 116.82526367 -98.63476562 116.14526367 C-99.39789063 116.00088867 -100.16101563 115.85651367 -100.94726562 115.70776367 C-103.63476562 115.14526367 -103.63476562 115.14526367 -106.63476562 114.14526367 C-106.63476562 113.48526367 -106.63476562 112.82526367 -106.63476562 112.14526367 C-114.69867511 110.37168839 -122.39125993 109.83721081 -130.63476562 109.89526367 C-131.73304688 109.8875293 -132.83132812 109.87979492 -133.96289062 109.87182617 C-141.05939713 109.88864254 -147.70430257 110.62097846 -154.63476562 112.14526367 C-154.63476562 112.80526367 -154.63476562 113.46526367 -154.63476562 114.14526367 C-157.54076824 115.40191345 -159.43081147 116.14526367 -162.63476562 116.14526367 C-162.63476562 116.80526367 -162.63476562 117.46526367 -162.63476562 118.14526367 C-166.09630409 121.14526367 -166.09630409 121.14526367 -168.63476562 121.14526367 C-168.63476562 121.80526367 -168.63476562 122.46526367 -168.63476562 123.14526367 C-169.65570313 123.67120117 -169.65570313 123.67120117 -170.69726562 124.20776367 C-175.63459009 127.46429683 -179.75569701 132.50805783 -181.63476562 138.14526367 C-182.29476562 138.14526367 -182.95476562 138.14526367 -183.63476562 138.14526367 C-184.62476563 141.44526367 -185.61476563 144.74526367 -186.63476562 148.14526367 C-187.29476562 148.14526367 -187.95476562 148.14526367 -188.63476562 148.14526367 C-188.98208125 150.47724002 -189.314677 152.8094818 -189.63476562 155.14526367 C-189.73015625 155.82073242 -189.82554687 156.49620117 -189.92382812 157.19213867 C-191.11125798 166.48801811 -191.17249011 175.1046202 -188.63476562 184.14526367 C-188.50976562 187.14526367 -188.50976562 187.14526367 -188.63476562 189.14526367 C-187.97476563 189.14526367 -187.31476563 189.14526367 -186.63476562 189.14526367 C-186.12916654 190.58080392 -185.63049072 192.01878387 -185.13476562 193.45776367 C-184.85632813 194.25827148 -184.57789063 195.0587793 -184.29101562 195.88354492 C-183.63476562 198.14526367 -183.63476562 198.14526367 -183.63476562 201.14526367 C-185.36157999 201.65332814 -187.09134542 202.15136834 -188.82226562 202.64526367 C-190.26666016 203.06291992 -190.26666016 203.06291992 -191.74023438 203.48901367 C-194.48822438 204.11203975 -196.83074978 204.26829179 -199.63476562 204.14526367 C-199.63476562 204.80526367 -199.63476562 205.46526367 -199.63476562 206.14526367 C-200.85292969 206.33862305 -202.07109375 206.53198242 -203.32617188 206.73120117 C-204.94990542 206.99400198 -206.57360136 207.25703517 -208.19726562 207.52026367 C-208.99712891 207.6465918 -209.79699219 207.77291992 -210.62109375 207.90307617 C-214.21318095 208.48953939 -217.56542196 209.12307688 -221.04101562 210.23510742 C-225.92632505 211.47236513 -230.55533289 211.39712675 -235.57226562 211.33276367 C-236.52294922 211.33211914 -237.47363281 211.33147461 -238.453125 211.33081055 C-246.24257389 211.28249556 -253.22876174 210.71469359 -260.63476562 208.14526367 C-263.62298598 207.42159252 -266.62524952 206.77391815 -269.63476562 206.14526367 C-269.63476562 205.48526367 -269.63476562 204.82526367 -269.63476562 204.14526367 C-270.35535156 204.03827148 -271.0759375 203.9312793 -271.81835938 203.82104492 C-274.88182587 203.08598292 -277.01452071 201.9706064 -279.69726562 200.33276367 C-280.53386719 199.83131836 -281.37046875 199.32987305 -282.23242188 198.81323242 C-284.6815038 197.11281294 -286.66796919 195.38459541 -288.63476562 193.14526367 C-288.63476562 192.48526367 -288.63476562 191.82526367 -288.63476562 191.14526367 C-289.29476563 191.14526367 -289.95476562 191.14526367 -290.63476562 191.14526367 C-292.59404944 185.1318643 -294.05109173 179.4489417 -294.63476562 173.14526367 C-295.62476563 172.81526367 -296.61476563 172.48526367 -297.63476562 172.14526367 C-298.85460311 169.7055887 -298.75528089 168.14621843 -298.74829102 165.42016602 C-298.74821548 164.43930023 -298.74813995 163.45843445 -298.74806213 162.44784546 C-298.74290085 161.38635284 -298.73773956 160.32486023 -298.73242188 159.23120117 C-298.73100693 158.14642487 -298.72959198 157.06164856 -298.72813416 155.94400024 C-298.72252365 152.46939367 -298.70996934 148.99485086 -298.69726562 145.52026367 C-298.69225198 143.1687021 -298.68768884 140.81713952 -298.68359375 138.46557617 C-298.67255081 132.69211681 -298.65580242 126.9186948 -298.63476562 121.14526367 C-295.30143229 122.81193034 -291.96809896 124.47859701 -288.63476562 126.14526367 C-287.24450599 118.65405882 -286.32309713 111.27308933 -285.88085938 103.66479492 C-285.63476562 101.14526367 -285.63476562 101.14526367 -284.63476562 100.14526367 C-284.48826646 98.04802242 -284.40727614 95.94614669 -284.35351562 93.84448242 C-284.29744141 91.91378906 -284.29744141 91.91378906 -284.24023438 89.9440918 C-284.2045623 88.57366242 -284.16941152 87.20321938 -284.13476562 85.83276367 C-284.0669153 83.16979696 -283.99311942 80.50722199 -283.91601562 77.84448242 C-283.88572266 76.65685303 -283.85542969 75.46922363 -283.82421875 74.24560547 C-283.6680728 71.69032534 -283.49151862 69.54763584 -282.63476562 67.14526367 C-279.67931441 65.03422709 -277.19620661 64.94740584 -273.63476562 65.14526367 C-273.63476562 64.48526367 -273.63476562 63.82526367 -273.63476562 63.14526367 C-262.74476563 61.66026367 -262.74476563 61.66026367 -251.63476562 60.14526367 C-252.95476562 58.49526367 -254.27476562 56.84526367 -255.63476562 55.14526367 C-255.63476562 54.48526367 -255.63476562 53.82526367 -255.63476562 53.14526367 C-256.29476562 53.14526367 -256.95476562 53.14526367 -257.63476562 53.14526367 C-257.88226563 52.40276367 -258.12976563 51.66026367 -258.38476562 50.89526367 C-259.76080795 47.86797056 -261.26227483 46.44996901 -263.63476562 44.14526367 C-264.86245688 42.36390773 -266.04458431 40.56443804 -267.19335938 38.73120117 C-271.2737244 34.24169386 -278.6170093 34.13119853 -284.25976562 33.12182617 C-289.55717672 31.58901046 -292.93370169 28.11068932 -296.63476562 24.14526367 C-298.04918436 21.3164262 -297.95376895 19.27149623 -297.63476562 16.14526367 C-295.53182495 14.07934342 -294.1852102 13.22096177 -291.2487793 12.81713867 C-290.37970947 12.84291992 -289.51063965 12.86870117 -288.61523438 12.89526367 C-287.64634277 12.92233398 -286.67745117 12.9494043 -285.67919922 12.97729492 C-280.75493781 13.24897831 -275.85438794 13.65620367 -270.94726562 14.14526367 C-269.94759766 14.2406543 -268.94792969 14.33604492 -267.91796875 14.43432617 C-265.48974888 14.66669171 -263.06208663 14.90372002 -260.63476562 15.14526367 C-260.63476562 15.80526367 -260.63476562 16.46526367 -260.63476562 17.14526367 C-260.03535156 17.12206055 -259.4359375 17.09885742 -258.81835938 17.07495117 C-224.98060886 16.40108416 -224.98060886 16.40108416 -215.63476562 25.14526367 C-214.67183594 25.98831055 -214.67183594 25.98831055 -213.68945312 26.84838867 C-211.97481774 28.55533511 -210.72741238 29.98786752 -209.63476562 32.14526367 C-209.75976562 36.08276367 -209.75976562 36.08276367 -210.63476562 39.14526367 C-211.62476563 39.14526367 -212.61476563 39.14526367 -213.63476562 39.14526367 C-213.63476562 39.80526367 -213.63476562 40.46526367 -213.63476562 41.14526367 C-218.25476563 41.14526367 -222.87476563 41.14526367 -227.63476562 41.14526367 C-227.63476562 40.48526367 -227.63476562 39.82526367 -227.63476562 39.14526367 C-229.61476563 39.47526367 -231.59476562 39.80526367 -233.63476562 40.14526367 C-233.20164062 40.69956055 -232.76851563 41.25385742 -232.32226562 41.82495117 C-231.76539063 42.5494043 -231.20851563 43.27385742 -230.63476562 44.02026367 C-230.07789063 44.73956055 -229.52101563 45.45885742 -228.94726562 46.19995117 C-227.63476562 48.14526367 -227.63476562 48.14526367 -227.63476562 50.14526367 C-226.97476563 50.14526367 -226.31476563 50.14526367 -225.63476562 50.14526367 C-224.31476563 52.45526367 -222.99476563 54.76526367 -221.63476562 57.14526367 C-218.44597957 57.0929071 -215.25980397 56.99772822 -212.07226562 56.89526367 C-211.17701172 56.88108398 -210.28175781 56.8669043 -209.359375 56.85229492 C-203.26593288 56.62909191 -199.69180743 55.55779188 -194.63476562 52.14526367 C-192.64296153 51.12903709 -190.64323927 50.12813376 -188.63476562 49.14526367 C-187.58289063 48.58838867 -186.53101563 48.03151367 -185.44726562 47.45776367 C-182.63476562 46.14526367 -182.63476562 46.14526367 -179.63476562 46.14526367 C-179.63476562 45.48526367 -179.63476562 44.82526367 -179.63476562 44.14526367 C-176.00476563 43.15526367 -172.37476563 42.16526367 -168.63476562 41.14526367 C-168.63476562 40.48526367 -168.63476562 39.82526367 -168.63476562 39.14526367 C-164.67476562 38.15526367 -160.71476563 37.16526367 -156.63476562 36.14526367 C-156.63476562 35.48526367 -156.63476562 34.82526367 -156.63476562 34.14526367 C-154.8652695 33.64055171 -153.0941134 33.14165682 -151.32226562 32.64526367 C-150.33613281 32.36682617 -149.35 32.08838867 -148.33398438 31.80151367 C-145.63476562 31.14526367 -145.63476562 31.14526367 -142.63476562 31.14526367 C-142.63476562 30.48526367 -142.63476562 29.82526367 -142.63476562 29.14526367 C-141.72855469 28.89131836 -140.82234375 28.63737305 -139.88867188 28.37573242 C-132.08684132 26.17140569 -124.36976633 23.84271675 -116.73632812 21.10620117 C-110.61845867 18.96417635 -105.10810719 17.57681978 -98.63476562 17.14526367 C-98.63476562 16.48526367 -98.63476562 15.82526367 -98.63476562 15.14526367 C-96.28218218 14.63659698 -93.92815158 14.13820117 -91.57226562 13.64526367 C-90.91548828 13.50217773 -90.25871094 13.3590918 -89.58203125 13.21166992 C-85.20336574 12.30573913 -81.13057859 12.00495221 -76.63476562 12.14526367 C-76.63476562 11.48526367 -76.63476562 10.82526367 -76.63476562 10.14526367 C-73.92750196 9.63878227 -71.21919438 9.13991267 -68.50976562 8.64526367 C-67.74921875 8.50217773 -66.98867187 8.3590918 -66.20507812 8.21166992 C-61.95433649 7.44213911 -57.97617366 6.97881991 -53.63476562 7.14526367 C-53.63476562 6.48526367 -53.63476562 5.82526367 -53.63476562 5.14526367 C-49.63730712 4.7329106 -45.63949354 4.32418855 -41.64135742 3.91845703 C-39.63311648 3.71396005 -37.6251471 3.50680181 -35.6171875 3.29956055 C-27.6640306 2.49442614 -19.72805673 1.85239629 -11.74633789 1.40673828 C-8.8102842 1.2516783 -8.8102842 1.2516783 -6.72996521 0.63800049 C-4.42209174 0.09524827 -2.36997003 0.01127437 0 0 Z " fill="#010101" transform="translate(309.634765625,188.854736328125)"/>
<path d="M0 0 C1.11375 0.680625 2.2275 1.36125 3.375 2.0625 C6.23405413 4.17275424 8.66361576 6.32002984 11 9 C11 9.99 11 10.98 11 12 C12.485 12.495 12.485 12.495 14 13 C18.32435973 18.59917097 19.66918112 24.05280356 20 31 C20.66 31 21.32 31 22 31 C22 37.93 22 44.86 22 52 C21.34 52 20.68 52 20 52 C19.94392578 52.88751953 19.94392578 52.88751953 19.88671875 53.79296875 C19.48031453 58.67778807 18.87297479 61.91153587 16 66 C14.9849911 67.99242489 13.98126556 69.99074195 13 72 C12.34 72 11.68 72 11 72 C10.731875 72.639375 10.46375 73.27875 10.1875 73.9375 C9 76 9 76 6 77 C5.505 78.485 5.505 78.485 5 80 C3.00390625 81.60546875 3.00390625 81.60546875 0.5625 83.1875 C-0.24058594 83.71730469 -1.04367188 84.24710937 -1.87109375 84.79296875 C-4 86 -4 86 -6 86 C-6 86.66 -6 87.32 -6 88 C-12.20514474 90.13619737 -17.42684522 91.36517527 -24 91 C-24 91.66 -24 92.32 -24 93 C-27.3 93 -30.6 93 -34 93 C-34 92.34 -34 91.68 -34 91 C-34.969375 91.061875 -35.93875 91.12375 -36.9375 91.1875 C-41.61559946 91.21625881 -45.67475582 89.64771207 -50 88 C-50 87.34 -50 86.68 -50 86 C-51.3303125 85.62875 -51.3303125 85.62875 -52.6875 85.25 C-58.25209955 83.15015111 -61.9463822 79.25135526 -66 75 C-66.48597656 74.52046875 -66.97195312 74.0409375 -67.47265625 73.546875 C-77.03711951 63.46871935 -78.62586807 50.37779056 -78.43359375 37.1171875 C-78.03952674 29.50433242 -75.16997382 22.83997328 -72 16 C-71.34 16 -70.68 16 -70 16 C-69.85498047 15.14341797 -69.85498047 15.14341797 -69.70703125 14.26953125 C-67.197439 6.21387879 -58.87762113 1.23208469 -51.89453125 -2.5625 C-34.80664972 -11.04878934 -16.07907233 -9.95616159 0 0 Z " fill="#010101" transform="translate(207,316)"/>
<path d="M0 0 C0 0.66 0 1.32 0 2 C1.03125 2.12375 2.0625 2.2475 3.125 2.375 C6.62116846 2.93889814 9.68397627 3.78682059 13 5 C13 5.66 13 6.32 13 7 C13.969375 7.268125 14.93875 7.53625 15.9375 7.8125 C16.948125 8.204375 17.95875 8.59625 19 9 C19.495 10.485 19.495 10.485 20 12 C20.721875 12.2475 21.44375 12.495 22.1875 12.75 C28.16318238 15.40585883 31.41312474 21.21032679 34 27 C34.74443359 28.35931641 34.74443359 28.35931641 35.50390625 29.74609375 C40.45240024 40.50874518 40.07395464 55.50109341 36.875 66.6875 C34.79027788 72.18452848 31.5951903 77.3652366 28 82 C27.34 82 26.68 82 26 82 C25.62875 82.86625 25.62875 82.86625 25.25 83.75 C22.75784318 88.23588228 19.83083522 90.38972159 15 92 C15 92.66 15 93.32 15 94 C14.14535156 94.27714844 13.29070312 94.55429687 12.41015625 94.83984375 C11.30542969 95.20207031 10.20070313 95.56429687 9.0625 95.9375 C7.96035156 96.29714844 6.85820313 96.65679687 5.72265625 97.02734375 C3.11876525 97.73856668 3.11876525 97.73856668 2 99 C-7.19106076 101.8664274 -15.72934132 100.51215261 -25 99 C-25 98.34 -25 97.68 -25 97 C-25.69867187 96.86722656 -26.39734375 96.73445313 -27.1171875 96.59765625 C-28.02726563 96.42105469 -28.93734375 96.24445313 -29.875 96.0625 C-30.77992188 95.88847656 -31.68484375 95.71445312 -32.6171875 95.53515625 C-35 95 -35 95 -37 94 C-37 93.34 -37 92.68 -37 92 C-37.721875 91.773125 -38.44375 91.54625 -39.1875 91.3125 C-42.57685109 89.73080282 -44.5424688 87.79885498 -47 85 C-47.33 84.01 -47.66 83.02 -48 82 C-48.93585937 81.54947266 -48.93585937 81.54947266 -49.890625 81.08984375 C-52.59887886 79.69057926 -53.33070478 78.23024935 -54.75 75.5625 C-55.17796875 74.78003906 -55.6059375 73.99757813 -56.046875 73.19140625 C-57 71 -57 71 -57 68 C-57.66 68 -58.32 68 -59 68 C-62.65153624 54.14372408 -62.87323259 38.43973222 -55.75 25.75 C-48.07489941 13.47941299 -48.07489941 13.47941299 -43.88671875 12.51171875 C-42.95279297 12.25841797 -42.95279297 12.25841797 -42 12 C-41.67 11.01 -41.34 10.02 -41 9 C-37.9375 7.8125 -37.9375 7.8125 -35 7 C-35 6.34 -35 5.68 -35 5 C-34.14535156 4.72285156 -33.29070313 4.44570313 -32.41015625 4.16015625 C-31.30542969 3.79792969 -30.20070313 3.43570312 -29.0625 3.0625 C-27.96035156 2.70285156 -26.85820313 2.34320313 -25.72265625 1.97265625 C-23.11876525 1.26143332 -23.11876525 1.26143332 -22 0 C-14.61029708 -1.44896136 -7.4565282 -0.68072238 0 0 Z " fill="#040404" transform="translate(679,320)"/>
<path d="M0 0 C0.99 0.33 1.98 0.66 3 1 C3.33 2.65 3.66 4.3 4 6 C-25.6319407 6.13529616 -55.25558532 5.969201 -84.88496399 5.59428024 C-87.42887073 5.56260744 -89.97279214 5.53257263 -92.51672363 5.50296021 C-96.57868006 5.45532777 -100.64055105 5.40300608 -104.70240211 5.34712219 C-106.20474301 5.32700361 -107.70710246 5.30821567 -109.20947838 5.29090881 C-115.81812549 5.21344609 -122.39837209 5.11009666 -128.98364258 4.5 C-136.4020341 3.81364008 -143.82202741 3.76909209 -151.265625 3.68359375 C-152.79547614 3.66296681 -154.32532233 3.6419691 -155.85516357 3.62062073 C-159.83998543 3.56599153 -163.82485352 3.51632696 -167.80975342 3.46777344 C-171.89274097 3.41712033 -175.97566318 3.36166533 -180.05859375 3.30664062 C-188.0390069 3.19978507 -196.01947549 3.09818568 -204 3 C-204 2.67 -204 2.34 -204 2 C-187.10417477 1.96949925 -170.20834898 1.94903803 -153.3125 1.9375 C-152.06494179 1.93664398 -150.81738358 1.93578796 -149.53202057 1.93490601 C-113.98660751 1.91336773 -78.46931607 2.11171261 -42.93145752 2.84191895 C-28.28913353 3.13029588 -13.64430211 3.10352144 1 3 C0.67 2.01 0.34 1.02 0 0 Z " fill="#919191" transform="translate(620,409)"/>
<path d="M0 0 C4.34242429 4.34242429 4.7444669 8.13551546 5 14 C5.66 14 6.32 14 7 14 C7 20.93 7 27.86 7 35 C6.34 35 5.68 35 5 35 C4.94392578 35.88751953 4.94392578 35.88751953 4.88671875 36.79296875 C4.48031453 41.67778807 3.87297479 44.91153587 1 49 C-0.0150089 50.99242489 -1.01873444 52.99074195 -2 55 C-2.66 55 -3.32 55 -4 55 C-4.268125 55.639375 -4.53625 56.27875 -4.8125 56.9375 C-6 59 -6 59 -9 60 C-9.33 60.99 -9.66 61.98 -10 63 C-11.99609375 64.60546875 -11.99609375 64.60546875 -14.4375 66.1875 C-15.24058594 66.71730469 -16.04367188 67.24710937 -16.87109375 67.79296875 C-19 69 -19 69 -21 69 C-21 69.66 -21 70.32 -21 71 C-27.20514474 73.13619737 -32.42684522 74.36517527 -39 74 C-39 74.66 -39 75.32 -39 76 C-42.3 76 -45.6 76 -49 76 C-49 75.34 -49 74.68 -49 74 C-49.969375 74.061875 -50.93875 74.12375 -51.9375 74.1875 C-56.61559946 74.21625881 -60.67475582 72.64771207 -65 71 C-65 70.34 -65 69.68 -65 69 C-61.58460792 69.40984705 -58.46612057 69.82775234 -55.23046875 71.0234375 C-45.20160533 74.05513745 -33.07485192 71.93216338 -23 70 C-23 69.34 -23 68.68 -23 68 C-21.80375 67.46375 -20.6075 66.9275 -19.375 66.375 C-15.02597001 64.23132919 -12.3263552 61.48475307 -9 58 C-8.34 58 -7.68 58 -7 58 C-6.731875 57.44054687 -6.46375 56.88109375 -6.1875 56.3046875 C-4.46452499 52.96075573 -2.43477582 49.81846743 -0.4375 46.6328125 C3.33094093 39.73083101 3.33514546 33.4585153 3.3125 25.75 C3.32861328 24.66847656 3.34472656 23.58695312 3.36132812 22.47265625 C3.36509726 16.2234368 2.73589527 10.93561775 0.64526367 5.03222656 C0 3 0 3 0 0 Z " fill="#8E8E8E" transform="translate(222,333)"/>
<path d="M0 0 C0.69802734 -0.00386719 1.39605469 -0.00773437 2.11523438 -0.01171875 C5.4884727 -0.00529965 8.58847641 0.0753179 11.8125 1.125 C11.8125 1.785 11.8125 2.445 11.8125 3.125 C11.14307373 3.14481934 10.47364746 3.16463867 9.78393555 3.18505859 C6.68896029 3.28155166 3.59454901 3.39071634 0.5 3.5 C-0.55251953 3.5309375 -1.60503906 3.561875 -2.68945312 3.59375 C-9.68112209 3.85190393 -16.34297337 4.67408652 -23.1875 6.125 C-23.1875 6.785 -23.1875 7.445 -23.1875 8.125 C-26.09350261 9.38164978 -27.98354584 10.125 -31.1875 10.125 C-31.1875 10.785 -31.1875 11.445 -31.1875 12.125 C-34.64903846 15.125 -34.64903846 15.125 -37.1875 15.125 C-37.1875 15.785 -37.1875 16.445 -37.1875 17.125 C-37.868125 17.475625 -38.54875 17.82625 -39.25 18.1875 C-44.18732446 21.44403316 -48.30843139 26.48779416 -50.1875 32.125 C-50.8475 32.125 -51.5075 32.125 -52.1875 32.125 C-53.1775 35.425 -54.1675 38.725 -55.1875 42.125 C-55.8475 42.125 -56.5075 42.125 -57.1875 42.125 C-57.8860756 46.81543617 -58.42615735 51.47946644 -58.80859375 56.20703125 C-59.1875 58.125 -59.1875 58.125 -61.1875 60.125 C-61.24179959 58.37534642 -61.28042823 56.62520213 -61.3125 54.875 C-61.34730469 53.41320312 -61.34730469 53.41320312 -61.3828125 51.921875 C-61.18270027 49.05626792 -60.5673964 47.59208751 -59.1875 45.125 C-58.80459538 43.13389599 -58.46145385 41.13399487 -58.1875 39.125 C-57.5275 39.125 -56.8675 39.125 -56.1875 39.125 C-56.084375 38.40828125 -55.98125 37.6915625 -55.875 36.953125 C-53.00810561 25.15976399 -42.06966 15.53828755 -32.18359375 9.3359375 C-31.52488281 8.93632812 -30.86617187 8.53671875 -30.1875 8.125 C-29.300625 7.5475 -28.41375 6.97 -27.5 6.375 C-23.33247784 4.12228532 -19.9329155 3.125 -15.1875 3.125 C-15.1875 2.465 -15.1875 1.805 -15.1875 1.125 C-10.07697475 0.28326643 -5.17501299 -0.029155 0 0 Z " fill="#6B6B6B" transform="translate(178.1875,294.875)"/>
<path d="M0 0 C0.91616089 -0.00637985 1.83232178 -0.0127597 2.77624512 -0.01933289 C3.76467407 -0.02044571 4.75310303 -0.02155853 5.77148438 -0.02270508 C6.80599731 -0.02603348 7.84051025 -0.02936188 8.90637207 -0.03279114 C11.10538286 -0.03785755 13.30440135 -0.04019955 15.50341797 -0.04003906 C18.79733877 -0.04219195 22.09090561 -0.06025589 25.38476562 -0.0793457 C35.57508732 -0.10713085 45.68433153 0.06156997 55.83398438 1.03198242 C56.67280151 1.1097139 57.51161865 1.18744537 58.37585449 1.26753235 C64.11037528 1.89040458 64.11037528 1.89040458 66.36523438 4.14526367 C65.26050781 4.1149707 64.15578125 4.08467773 63.01757812 4.0534668 C20.44048023 1.98248729 20.44048023 1.98248729 -21.94335938 4.70776367 C-26.20212474 5.21250623 -30.35343435 5.23365245 -34.63476562 5.14526367 C-34.30476563 4.48526367 -33.97476562 3.82526367 -33.63476562 3.14526367 C-31.28979492 2.75048828 -31.28979492 2.75048828 -28.20898438 2.54760742 C-27.10232422 2.46833008 -25.99566406 2.38905273 -24.85546875 2.30737305 C-23.68951172 2.23325195 -22.52355469 2.15913086 -21.32226562 2.08276367 C-19.03430212 1.92818881 -16.74652962 1.77075337 -14.45898438 1.61010742 C-13.43893311 1.54428467 -12.41888184 1.47846191 -11.36791992 1.41064453 C-8.7534211 1.23309074 -8.7534211 1.23309074 -6.75361633 0.63775635 C-4.43707186 0.09931295 -2.37735184 0.01130948 0 0 Z " fill="#7B7B7B" transform="translate(309.634765625,188.854736328125)"/>
<path d="M0 0 C0.66 0 1.32 0 2 0 C-0.02510675 12.91878447 -6.80189041 21.20275718 -15 31 C-8.13547867 30.88114564 -1.27108245 30.7563621 5.59326172 30.62768555 C7.92266468 30.58469159 10.25209202 30.54299601 12.58154297 30.50268555 C32.55215699 31.12473828 32.55215699 31.12473828 52 28 C53.72774185 27.8743968 55.45730553 27.77291157 57.1875 27.6875 C63.93650093 27.13327741 68.45980337 24.69346442 74 21 C73.8125 22.875 73.8125 22.875 73 25 C70.4375 26.25 70.4375 26.25 68 27 C68 27.66 68 28.32 68 29 C66.56432267 29.32076956 65.12628018 29.63094808 63.6875 29.9375 C62.88699219 30.11152344 62.08648438 30.28554688 61.26171875 30.46484375 C51.51455543 32.06407893 41.78077561 32.13630651 31.92578125 32.09765625 C30.50660757 32.09578629 29.08743323 32.09436512 27.66825867 32.09336853 C23.9710607 32.0895888 20.27390334 32.07979853 16.57672119 32.06866455 C12.78878325 32.05835154 9.00083862 32.05384993 5.21289062 32.04882812 C-2.19142457 32.03817118 -9.59570655 32.02115088 -17 32 C-16.255614 27.09196043 -14.64255261 25.38842103 -11 22 C-9.62131719 20.37064759 -8.28725907 18.70250393 -7 17 C-6.319375 16.13375 -5.63875 15.2675 -4.9375 14.375 C-2.31662475 9.8096044 -1.19733919 5.09776233 0 0 Z " fill="#727272" transform="translate(726,385)"/>
<path d="M0 0 C5.79058111 2.20890702 7.46603585 7.71468068 10 13 C10.40863281 13.83789062 10.81726563 14.67578125 11.23828125 15.5390625 C16.63613523 28.2191122 15.57325072 42.77221533 13 56 C12.34 56 11.68 56 11 56 C10.896875 56.66 10.79375 57.32 10.6875 58 C9.03507251 65.21059269 6.40057371 71.80714066 1 77 C0.195625 78.010625 -0.60875 79.02125 -1.4375 80.0625 C-3.66501173 82.61598906 -4.90162763 83.85245468 -8 85 C-7.0019571 82.67123324 -6.08558106 81.08252459 -4.25 79.3125 C-0.29688789 75.24957922 3.20106461 70.39680616 5 65 C5.66 65 6.32 65 7 65 C7.103125 64.34 7.20625 63.68 7.3125 63 C8.02544255 59.88897795 9.0717014 57.1054071 10.28125 54.16015625 C12.45905694 47.61489953 12.11703592 40.93779443 12.0625 34.125 C12.05798828 33.05507813 12.05347656 31.98515625 12.04882812 30.8828125 C12.03709749 28.25515014 12.02068228 25.62760462 12 23 C11.34 23 10.68 23 10 23 C9.80083984 22.09507812 9.80083984 22.09507812 9.59765625 21.171875 C9.33275391 19.97304688 9.33275391 19.97304688 9.0625 18.75 C8.88847656 17.96109375 8.71445313 17.1721875 8.53515625 16.359375 C8.052444 14.23121297 7.53836822 12.11467158 7 10 C6.34 10 5.68 10 5 10 C3.33333333 6.66666667 1.66666667 3.33333333 0 0 Z " fill="#7C7C7C" transform="translate(227,320)"/>
<path d="M0 0 C6.93 0 13.86 0 21 0 C21 0.66 21 1.32 21 2 C21.61069336 1.98952637 22.22138672 1.97905273 22.85058594 1.96826172 C35.7703702 1.77903981 48.60561141 1.99636763 61.5 2.875 C63.34223145 2.99270752 63.34223145 2.99270752 65.22167969 3.11279297 C66.92179199 3.23871826 66.92179199 3.23871826 68.65625 3.3671875 C70.16928711 3.47716064 70.16928711 3.47716064 71.71289062 3.58935547 C72.46763672 3.72486816 73.22238281 3.86038086 74 4 C74.495 4.99 74.495 4.99 75 6 C72.70840363 6.02749916 70.41670632 6.04661689 68.125 6.0625 C66.84882812 6.07410156 65.57265625 6.08570313 64.2578125 6.09765625 C61.29851035 6.07343513 58.41874002 5.85845494 55.47851562 5.52734375 C49.68703814 4.93028319 43.902441 4.6802188 38.0859375 4.46484375 C36.99028473 4.42186661 35.89463196 4.37888947 34.76577759 4.33460999 C31.3022882 4.19940078 27.83865536 4.06838134 24.375 3.9375 C22.01170797 3.84598115 19.64842658 3.75418697 17.28515625 3.66210938 C11.52355672 3.43822345 5.76183386 3.21776745 0 3 C0 2.01 0 1.02 0 0 Z " fill="#767676" transform="translate(570,262)"/>
<path d="M0 0 C0 0.66 0 1.32 0 2 C-6.03053597 3.61794868 -12.00816179 4.69158656 -18.1875 5.5625 C-19.93114916 5.81269248 -21.67464429 6.06396124 -23.41796875 6.31640625 C-24.55915161 6.47798218 -24.55915161 6.47798218 -25.72338867 6.64282227 C-28.16530343 7.02593447 -30.57955627 7.50000098 -33 8 C-32.99476318 8.70906494 -32.98952637 9.41812988 -32.98413086 10.14868164 C-32.81727622 36.20123904 -32.81727622 36.20123904 -34 49 C-34.99 49 -35.98 49 -37 49 C-37.09765625 42.84765625 -37.09765625 42.84765625 -37 41 C-36.505 40.505 -36.505 40.505 -36 40 C-35.85350084 37.90275875 -35.77251051 35.80088302 -35.71875 33.69921875 C-35.68136719 32.41208984 -35.64398438 31.12496094 -35.60546875 29.79882812 C-35.56979668 28.42839875 -35.5346459 27.05795571 -35.5 25.6875 C-35.43214968 23.02453329 -35.35835379 20.36195832 -35.28125 17.69921875 C-35.25095703 16.51158936 -35.22066406 15.32395996 -35.18945312 14.1003418 C-35.03330718 11.54506167 -34.856753 9.40237216 -34 7 C-31.04454879 4.88896342 -28.56144099 4.80214217 -25 5 C-25 4.34 -25 3.68 -25 3 C-21.20860533 2.49792285 -17.41684155 1.99869006 -13.625 1.5 C-12.54476562 1.35691406 -11.46453125 1.21382812 -10.3515625 1.06640625 C-8.8046875 0.86337891 -8.8046875 0.86337891 -7.2265625 0.65625 C-6.27346191 0.53056641 -5.32036133 0.40488281 -4.33837891 0.27539062 C-2 0 -2 0 0 0 Z " fill="#959595" transform="translate(61,249)"/>
<path d="M0 0 C1.52242851 0.43191634 3.04285919 0.87087562 4.5625 1.3125 C5.83287109 1.67794922 5.83287109 1.67794922 7.12890625 2.05078125 C10 3 10 3 13.36328125 4.5 C29.71609106 11.24487537 50.04148482 10.77369288 66.96875 6.65625 C69.76265517 6.05138393 72.15555204 5.87263666 75 6 C72.53677554 8.46322446 71.21132135 8.4749407 67.8125 9 C64.68088018 9.49054744 61.83677689 10.05393982 58.8203125 11.05078125 C53.83660442 12.28906455 49.17461187 12.25308415 44.0625 12.1875 C43.11181641 12.18685547 42.16113281 12.18621094 41.18164062 12.18554688 C33.39219173 12.13723189 26.40600388 11.56942992 19 9 C16.01177965 8.27632884 13.00951611 7.62865448 10 7 C10 6.34 10 5.68 10 5 C8.9171875 4.8453125 8.9171875 4.8453125 7.8125 4.6875 C4.74061475 3.93659472 2.59814146 2.78158272 0 1 C0 0.67 0 0.34 0 0 Z " fill="#939393" transform="translate(30,388)"/>
<path d="M0 0 C1.32 0 2.64 0 4 0 C4 0.99 4 1.98 4 3 C2.20755859 3.27263672 2.20755859 3.27263672 0.37890625 3.55078125 C-9.12334772 5.03694416 -17.75984798 6.86841274 -26.6875 10.5 C-34.73342316 13.56972972 -43.50264796 14.85258686 -52 16 C-51.67 15.34 -51.34 14.68 -51 14 C-48.5809129 13.24477281 -46.20892153 12.59273438 -43.75 12 C-38.4570304 10.70652958 -38.4570304 10.70652958 -33.31640625 8.9140625 C-30.87709296 7.95150043 -28.7917527 7.60821666 -26.1875 7.375 C-25.39730469 7.30023438 -24.60710937 7.22546875 -23.79296875 7.1484375 C-22.90544922 7.07496094 -22.90544922 7.07496094 -22 7 C-22 6.34 -22 5.68 -22 5 C-19.64741656 4.49133331 -17.29338596 3.9929375 -14.9375 3.5 C-13.95233398 3.28537109 -13.95233398 3.28537109 -12.94726562 3.06640625 C-8.56860012 2.16047545 -4.49581296 1.85968854 0 2 C0 1.34 0 0.68 0 0 Z " fill="#787878" transform="translate(233,199)"/>
<path d="M0 0 C1.98 0.99 1.98 0.99 4 2 C4 2.66 4 3.32 4 4 C4.66 4 5.32 4 6 4 C7.00254592 6.33226999 8.00264383 8.6655104 9 11 C9.26200195 11.61214355 9.52400391 12.22428711 9.79394531 12.85498047 C10.58210051 14.71135859 11.35468813 16.57365496 12.125 18.4375 C12.38925781 19.05431641 12.65351562 19.67113281 12.92578125 20.30664062 C17.33361818 31.05773527 17.45742117 43.97947003 14 55 C13.67 55 13.34 55 13 55 C13.01571045 54.01773438 13.01571045 54.01773438 13.03173828 53.015625 C13.07365359 50.01045668 13.09943809 47.00535016 13.125 44 C13.14175781 42.97003906 13.15851562 41.94007813 13.17578125 40.87890625 C13.21418554 34.84943207 12.73241995 29.77473315 11 24 C10.70029297 22.70449219 10.70029297 22.70449219 10.39453125 21.3828125 C8.85217521 15.39971321 6.29232674 11.10862578 2.5234375 6.2265625 C1.05208465 4.07612372 0.42975265 2.54367111 0 0 Z " fill="#737373" transform="translate(715,330)"/>
<path d="M0 0 C0 0.66 0 1.32 0 2 C-1.32 2.33 -2.64 2.66 -4 3 C-4 3.66 -4 4.32 -4 5 C-4.66 5 -5.32 5 -6 5 C-6 5.66 -6 6.32 -6 7 C-6.99 7.66 -7.98 8.32 -9 9 C-9.33 9.99 -9.66 10.98 -10 12 C-10.60585938 12.58136719 -11.21171875 13.16273438 -11.8359375 13.76171875 C-14.46227424 16.47812841 -15.99916642 19.44932655 -17.625 22.8125 C-17.9240625 23.40353516 -18.223125 23.99457031 -18.53125 24.60351562 C-21.52697735 30.68113063 -23.07685662 36.7743028 -24.125 43.4375 C-24.29257812 44.48808594 -24.46015625 45.53867187 -24.6328125 46.62109375 C-24.75398437 47.40613281 -24.87515625 48.19117188 -25 49 C-25.33 49 -25.66 49 -26 49 C-26.8929686 35.23340075 -23.18513033 23.18903284 -15 12 C-14.34 12 -13.68 12 -13 12 C-12.7525 11.4225 -12.505 10.845 -12.25 10.25 C-10.81700012 7.67060021 -9.21575324 5.93878408 -7 4 C-6.34 4 -5.68 4 -5 4 C-5 3.34 -5 2.68 -5 2 C-2 0 -2 0 0 0 Z " fill="#878787" transform="translate(632,320)"/>
<path d="M0 0 C0 0.99 0 1.98 0 3 C-2.31 2.67 -4.62 2.34 -7 2 C-7 1.34 -7 0.68 -7 0 C-16.24 0 -25.48 0 -35 0 C-35 0.66 -35 1.32 -35 2 C-37.64 2.33 -40.28 2.66 -43 3 C-43 2.01 -43 1.02 -43 0 C-29.12368837 -4.18531482 -13.75099476 -5.19138679 0 0 Z " fill="#919191" transform="translate(689,310)"/>
<path d="M0 0 C0.66 0 1.32 0 2 0 C2 0.99 2 1.98 2 3 C1.46375 3.1959375 0.9275 3.391875 0.375 3.59375 C-5.24871654 5.73964184 -10.62816832 8.23551592 -16 10.9375 C-16.69520752 11.28425781 -17.39041504 11.63101563 -18.10668945 11.98828125 C-21.05205685 13.46739436 -23.94477314 14.96779077 -26.79296875 16.62890625 C-33.50663829 20.47311181 -39.35835216 20.5389877 -47 20 C-46.67 19.34 -46.34 18.68 -46 18 C-43.96495587 17.79354625 -41.91959335 17.68554604 -39.875 17.625 C-33.94822322 17.26226831 -30.82777038 16.34988149 -26 13 C-24.00819591 11.98377342 -22.00847365 10.98287008 -20 10 C-18.948125 9.443125 -17.89625 8.88625 -16.8125 8.3125 C-14 7 -14 7 -11 7 C-11 6.34 -11 5.68 -11 5 C-5.555 3.515 -5.555 3.515 0 2 C0 1.34 0 0.68 0 0 Z " fill="#818181" transform="translate(141,228)"/>
<path d="M0 0 C4.34242429 4.34242429 4.7444669 8.13551546 5 14 C5.66 14 6.32 14 7 14 C7 20.93 7 27.86 7 35 C6.34 35 5.68 35 5 35 C4.67 35.99 4.34 36.98 4 38 C3.97812622 36.94256592 3.97812622 36.94256592 3.95581055 35.86376953 C3.88055803 32.61700886 3.78415626 29.37119124 3.6875 26.125 C3.65366211 24.46210938 3.65366211 24.46210938 3.61914062 22.765625 C3.41524553 16.46341309 2.72682893 10.98154503 0.63208008 5.01904297 C0 3 0 3 0 0 Z " fill="#626262" transform="translate(222,333)"/>
<path d="M0 0 C0.66 0.33 1.32 0.66 2 1 C1.36191406 1.75925781 0.72382813 2.51851563 0.06640625 3.30078125 C-0.75988281 4.29464844 -1.58617187 5.28851563 -2.4375 6.3125 C-3.26121094 7.29863281 -4.08492187 8.28476562 -4.93359375 9.30078125 C-7.14121576 11.88100145 -7.14121576 11.88100145 -8 15 C-8.66 15 -9.32 15 -10 15 C-10.99 18.3 -11.98 21.6 -13 25 C-13.66 25 -14.32 25 -15 25 C-15.6985756 29.69043617 -16.23865735 34.35446644 -16.62109375 39.08203125 C-17 41 -17 41 -19 43 C-19.05429959 41.25034642 -19.09292823 39.50020213 -19.125 37.75 C-19.15980469 36.28820312 -19.15980469 36.28820312 -19.1953125 34.796875 C-18.99520027 31.93126792 -18.3798964 30.46708751 -17 28 C-16.61709538 26.00889599 -16.27395385 24.00899487 -16 22 C-15.34 22 -14.68 22 -14 22 C-13.85111328 20.93072266 -13.85111328 20.93072266 -13.69921875 19.83984375 C-11.77610507 12.02920884 -5.85793687 5.28643083 0 0 Z " fill="#8D8D8D" transform="translate(136,312)"/>
<path d="M0 0 C2.5625 2.0625 2.5625 2.0625 5 5 C4.8125 8.8125 4.8125 8.8125 4 12 C3.01 12 2.02 12 1 12 C1 12.66 1 13.32 1 14 C-3.62 14 -8.24 14 -13 14 C-13 13.34 -13 12.68 -13 12 C-15.97065509 12.34227572 -15.97065509 12.34227572 -19 13 C-19.33 13.66 -19.66 14.32 -20 15 C-20.66 14.34 -21.32 13.68 -22 13 C-22 12.01 -22 11.02 -22 10 C-14.08 10 -6.16 10 2 10 C1.2981424 3.59628479 1.2981424 3.59628479 0 0 Z " fill="#757575" transform="translate(95,216)"/>
<path d="M0 0 C1.99954746 -0.04254356 4.00041636 -0.04080783 6 0 C6.33 0.33 6.66 0.66 7 1 C9.26877104 1.24875561 11.54019735 1.47339246 13.8125 1.6875 C21.48235138 2.56731738 27.28758395 5.18167154 34 9 C35.91109524 9.96939614 37.82743789 10.92854937 39.75 11.875 C41.16666667 12.58333333 42.58333333 13.29166667 44 14 C44 14.66 44 15.32 44 16 C40.42400571 15.42909565 37.74859265 14.508656 34.625 12.6875 C33.91601562 12.27886719 33.20703125 11.87023437 32.4765625 11.44921875 C30.56879578 10.33284422 28.70054828 9.14874627 26.8515625 7.9375 C22.39444147 5.39443216 17.78134438 4.91199498 12.75 4.3125 C10.97368391 4.08152786 9.19762819 3.84854196 7.421875 3.61328125 C6.64424805 3.51829346 5.86662109 3.42330566 5.06542969 3.32543945 C3 3 3 3 0 2 C0 1.34 0 0.68 0 0 Z " fill="#868686" transform="translate(649,267)"/>
<path d="M0 0 C0 0.66 0 1.32 0 2 C1.134375 2.12375 2.26875 2.2475 3.4375 2.375 C4.613125 2.58125 5.78875 2.7875 7 3 C7.495 3.99 7.495 3.99 8 5 C6.74509766 4.7834375 6.74509766 4.7834375 5.46484375 4.5625 C-6.47053952 2.65918307 -18.22649275 1.69515586 -30 5 C-28.39137327 1.78274654 -25.24583239 1.0840573 -22 0 C-14.64134554 -1.54919041 -7.44276442 -0.67946585 0 0 Z " fill="#828282" transform="translate(679,320)"/>
<path d="M0 0 C0.70125 0.19335938 1.4025 0.38671875 2.125 0.5859375 C3.548125 0.97652344 3.548125 0.97652344 5 1.375 C6.3921875 1.75785156 6.3921875 1.75785156 7.8125 2.1484375 C8.864375 2.42945313 9.91625 2.71046875 11 3 C12.216875 3.3609375 13.43375 3.721875 14.6875 4.09375 C19.77058126 5.35604851 24.79295336 5.21836773 30 5.125 C30.96550781 5.11597656 31.93101562 5.10695313 32.92578125 5.09765625 C35.28412099 5.07430635 37.64192286 5.04156047 40 5 C39 7 39 7 37.05859375 7.703125 C28.39556145 9.51061311 20.61896555 8.40585385 12 7 C12 6.34 12 5.68 12 5 C11.30132813 4.86722656 10.60265625 4.73445313 9.8828125 4.59765625 C8.97273437 4.42105469 8.06265625 4.24445313 7.125 4.0625 C6.22007812 3.88847656 5.31515625 3.71445312 4.3828125 3.53515625 C2 3 2 3 0 2 C0 1.34 0 0.68 0 0 Z " fill="#878787" transform="translate(642,412)"/>
<path d="M0 0 C0.99 0.495 0.99 0.495 2 1 C2.79500311 3.64107776 3.50548659 6.26752604 4.1875 8.9375 C7.63797789 21.43002613 14.21127673 29.80751782 25 37 C25 37.66 25 38.32 25 39 C13.6196216 33.74751766 6.30278953 24.62009103 1.86328125 12.94921875 C0.60665224 8.65621015 0.10859396 4.46222473 0 0 Z " fill="#969696" transform="translate(129,362)"/>
<path d="M0 0 C0.66 0 1.32 0 2 0 C1.74337755 1.44010481 1.46909179 2.8770687 1.1875 4.3125 C1.03667969 5.11300781 0.88585937 5.91351563 0.73046875 6.73828125 C-0.08777185 9.27176417 -1.06744954 10.22849541 -3 12 C-4.19027984 14.59915538 -4.19027984 14.59915538 -5 17 C-5.66 17 -6.32 17 -7 17 C-7.268125 17.639375 -7.53625 18.27875 -7.8125 18.9375 C-9 21 -9 21 -12 22 C-12.33 22.99 -12.66 23.98 -13 25 C-14.92578125 26.640625 -14.92578125 26.640625 -17.3125 28.25 C-18.09238281 28.79140625 -18.87226563 29.3328125 -19.67578125 29.890625 C-22 31 -22 31 -24.29296875 30.671875 C-25.13794922 30.33929688 -25.13794922 30.33929688 -26 30 C-24.80375 29.46375 -23.6075 28.9275 -22.375 28.375 C-18.02597001 26.23132919 -15.3263552 23.48475307 -12 20 C-11.34 20 -10.68 20 -10 20 C-9.731875 19.44054687 -9.46375 18.88109375 -9.1875 18.3046875 C-7.90967194 15.82469225 -6.47512977 13.49258328 -5 11.125 C-2.80010372 7.49785395 -1.08767821 4.13317719 0 0 Z " fill="#909090" transform="translate(225,371)"/>
<path d="M0 0 C1.39025391 0.02320313 1.39025391 0.02320313 2.80859375 0.046875 C5.46867325 0.24307945 7.96281954 0.66495394 10.5625 1.25 C10.5625 1.58 10.5625 1.91 10.5625 2.25 C2.1475 2.745 2.1475 2.745 -6.4375 3.25 C-7.2037442 9.85199138 -7.2037442 9.85199138 -4.5390625 12.4296875 C-3.72179687 12.98914063 -2.90453125 13.54859375 -2.0625 14.125 C-1.25039063 14.69992188 -0.43828125 15.27484375 0.3984375 15.8671875 C2.49370454 17.25925044 2.49370454 17.25925044 4.5625 18.25 C4.2325 18.91 3.9025 19.57 3.5625 20.25 C0.14248124 19.04837179 -2.0384174 17.96200642 -4.4375 15.25 C-5.13875 14.569375 -5.84 13.88875 -6.5625 13.1875 C-8.93817889 10.73263182 -9.38601617 9.73394804 -9.75 6.3125 C-9.4375 3.25 -9.4375 3.25 -7.7578125 1.57421875 C-4.94458979 -0.03130734 -3.21898654 -0.08929228 0 0 Z " fill="#989898" transform="translate(21.4375,201.75)"/>
<path d="M0 0 C2.04013637 5.50178712 -0.91867407 10.85181964 -3 16 C-4.83166909 19.49373919 -7.16152084 22.27506001 -10 25 C-10.804375 26.010625 -11.60875 27.02125 -12.4375 28.0625 C-14.66501173 30.61598906 -15.90162763 31.85245468 -19 33 C-18.0019571 30.67123324 -17.08558106 29.08252459 -15.25 27.3125 C-11.29688789 23.24957922 -7.79893539 18.39680616 -6 13 C-5.34 13 -4.68 13 -4 13 C-3.8453125 12.01 -3.8453125 12.01 -3.6875 11 C-2.80786436 7.16158991 -1.43030104 3.66903309 0 0 Z " fill="#8F8F8F" transform="translate(238,372)"/>
<path d="M0 0 C12.78533754 -0.40163364 23.17370376 0.6493044 34 8 C34.495 8.99 34.495 8.99 35 10 C30.37719788 8.54016775 25.93261143 6.77273622 21.46484375 4.90234375 C16.60608372 3.12362177 11.83071594 2.77397207 6.6875 2.4375 C5.43324219 2.35371094 4.17898437 2.26992188 2.88671875 2.18359375 C1.45779297 2.09271484 1.45779297 2.09271484 0 2 C0 1.34 0 0.68 0 0 Z " fill="#747474" transform="translate(173,308)"/>
<path d="M0 0 C18.34042553 0.80851064 18.34042553 0.80851064 27 3 C27 3.66 27 4.32 27 5 C29.64 5.33 32.28 5.66 35 6 C35 6.66 35 7.32 35 8 C29.7542413 7.44781487 25.07531254 6.48759161 20 5 C16.67788444 4.27486818 13.33918164 3.64120179 10 3 C8.12470538 2.62647611 6.24969342 2.25152965 4.375 1.875 C3.53710938 1.70742188 2.69921875 1.53984375 1.8359375 1.3671875 C1.23007812 1.24601562 0.62421875 1.12484375 0 1 C0 0.67 0 0.34 0 0 Z " fill="#787878" transform="translate(697,283)"/>
<path d="M0 0 C0.33 0 0.66 0 1 0 C1.10349817 6.41688675 0.74507544 12.62694402 0 19 C2.31 19.99 4.62 20.98 7 22 C7 22.66 7 23.32 7 24 C7.639375 24.2475 8.27875 24.495 8.9375 24.75 C11 26 11 26 11.75 28.125 C11.87375 29.053125 11.87375 29.053125 12 30 C9 29 9 29 7.3125 26.6875 C4.34540504 23.2392545 1.1160551 21.78828607 -3 20 C-2.69055299 17.41626766 -2.37756043 14.83304867 -2.0625 12.25 C-1.97548828 11.52039063 -1.88847656 10.79078125 -1.79882812 10.0390625 C-1.37972591 6.62415558 -0.882726 3.32396457 0 0 Z " fill="#8A8A8A" transform="translate(788,371)"/>
<path d="M0 0 C0 0.66 0 1.32 0 2 C-4.03754825 2.71751496 -8.07604335 3.42941346 -12.11547852 4.13623047 C-13.48814286 4.37721902 -14.86054384 4.61971294 -16.23266602 4.86376953 C-18.21039235 5.21526968 -20.18917245 5.56082421 -22.16796875 5.90625 C-23.35672607 6.11572266 -24.5454834 6.32519531 -25.77026367 6.54101562 C-28.57681413 6.9398602 -31.17305293 7.09322167 -34 7 C-33.67 6.34 -33.34 5.68 -33 5 C-27.48328169 3.47749852 -21.71937774 2.69084445 -16 3 C-16 2.34 -16 1.68 -16 1 C-10.62915894 0.31798844 -5.41499441 -0.11521265 0 0 Z " fill="#8C8C8C" transform="translate(272,193)"/>
<path d="M0 0 C10.85125144 -0.20388573 18.66442633 0.01905328 28 6 C27.67 6.66 27.34 7.32 27 8 C26.46375 7.72285156 25.9275 7.44570312 25.375 7.16015625 C17.36814274 3.4596186 9.66998469 3.2151361 1 3 C0.67 2.01 0.34 1.02 0 0 Z " fill="#4E4E4E" transform="translate(65,207)"/>
<path d="M0 0 C1.52242851 0.43191634 3.04285919 0.87087562 4.5625 1.3125 C5.83287109 1.67794922 5.83287109 1.67794922 7.12890625 2.05078125 C10 3 10 3 13.28125 4.5 C17.38280072 6.29810103 21.53414729 6.99699996 25.9375 7.6875 C26.71673828 7.81705078 27.49597656 7.94660156 28.29882812 8.08007812 C30.19792168 8.3946519 32.09879356 8.69845882 34 9 C30.73120744 10.73783908 28.73768989 11.35597047 25 11 C22.99105606 10.36079057 20.99220557 9.68960962 19 9 C16.01205509 8.27505599 13.00954452 7.62866041 10 7 C10 6.34 10 5.68 10 5 C8.9171875 4.8453125 8.9171875 4.8453125 7.8125 4.6875 C4.74061475 3.93659472 2.59814146 2.78158272 0 1 C0 0.67 0 0.34 0 0 Z " fill="#717171" transform="translate(30,388)"/>
<path d="M0 0 C6.54393673 2.88328962 10.15405547 8.63050509 13 15 C13.53625 16.010625 14.0725 17.02125 14.625 18.0625 C16.98989929 23.11478485 17.10877262 27.45259638 17 33 C16.34 33 15.68 33 15 33 C14.87882813 32.19175781 14.75765625 31.38351562 14.6328125 30.55078125 C14.46523438 29.48214844 14.29765625 28.41351563 14.125 27.3125 C13.96257813 26.25675781 13.80015625 25.20101563 13.6328125 24.11328125 C12.25108412 17.3155188 9.36426644 10.63941629 3.8125 6.3125 C1 4 1 4 0.125 1.6875 C0.08375 1.130625 0.0425 0.57375 0 0 Z " fill="#898989" transform="translate(700,332)"/>
<path d="M0 0 C5.28 0.33 10.56 0.66 16 1 C16 1.66 16 2.32 16 3 C19.96 3 23.92 3 28 3 C28.33 3.66 28.66 4.32 29 5 C19.08080209 5.35780674 9.69810365 3.986143 0 2 C0 1.34 0 0.68 0 0 Z " fill="#737373" transform="translate(33,203)"/>
<path d="M0 0 C0.33 0 0.66 0 1 0 C1.10709533 11.72098848 0.99140649 23.31556633 0 35 C-0.99 35 -1.98 35 -3 35 C-3.09765625 28.84765625 -3.09765625 28.84765625 -3 27 C-2.67 26.67 -2.34 26.34 -2 26 C-1.7714679 24.0769127 -1.60481143 22.14639772 -1.46484375 20.21484375 C-1.37783203 19.04501953 -1.29082031 17.87519531 -1.20117188 16.66992188 C-1.11416016 15.43822266 -1.02714844 14.20652344 -0.9375 12.9375 C-0.84662109 11.70193359 -0.75574219 10.46636719 -0.66210938 9.19335938 C-0.43732402 6.12918006 -0.2168144 3.06475198 0 0 Z " fill="#616161" transform="translate(27,263)"/>
<path d="M0 0 C2.64 0.99 5.28 1.98 8 3 C8 3.66 8 4.32 8 5 C13.445 6.485 13.445 6.485 19 8 C19 8.66 19 9.32 19 10 C22.3 10.99 25.6 11.98 29 13 C29 13.33 29 13.66 29 14 C22.99666876 14.6319296 18.36595205 12.37544123 13 10 C13 9.34 13 8.68 13 8 C12.154375 7.7525 11.30875 7.505 10.4375 7.25 C6.61572526 5.86026373 3.48131937 4.08879162 0 2 C0 1.34 0 0.68 0 0 Z " fill="#6B6B6B" transform="translate(530,249)"/>
<path d="M0 0 C-2.90600261 1.25664978 -4.79604584 2 -8 2 C-8 2.66 -8 3.32 -8 4 C-10.90600261 5.25664978 -12.79604584 6 -16 6 C-16 6.66 -16 7.32 -16 8 C-19.46153846 11 -19.46153846 11 -22 11 C-22 11.66 -22 12.32 -22 13 C-22.99 13.33 -23.98 13.66 -25 14 C-25 13.01 -25 12.02 -25 11 C-19.39426946 5.53987285 -8.00956232 -3.08060089 0 0 Z " fill="#727272" transform="translate(163,299)"/>
<path d="M0 0 C3 2 3 2 3.51953125 4.28515625 C3.61621094 5.20167969 3.71289062 6.11820312 3.8125 7.0625 C4.74791443 13.08720309 7.02570386 17.39871566 11 22 C11.99 22.66 12.98 23.32 14 24 C13.67 24.66 13.34 25.32 13 26 C11.8274869 25.04882866 10.66212985 24.08882991 9.5 23.125 C8.8503125 22.59132813 8.200625 22.05765625 7.53125 21.5078125 C7.0259375 21.01023437 6.520625 20.51265625 6 20 C6 19.34 6 18.68 6 18 C5.34 18 4.68 18 4 18 C2.04071619 11.98660063 0.58367389 6.30367803 0 0 Z " fill="#8C8C8C" transform="translate(15,362)"/>
<path d="M0 0 C2.97 0.495 2.97 0.495 6 1 C6 1.66 6 2.32 6 3 C6.59425781 3.15855469 7.18851562 3.31710938 7.80078125 3.48046875 C14.52497495 5.37328222 20.71039612 7.97477228 27 11 C27 11.66 27 12.32 27 13 C25.39566191 12.52140759 23.79153584 12.04210442 22.1875 11.5625 C20.84751953 11.16224609 20.84751953 11.16224609 19.48046875 10.75390625 C17.64526945 10.19612127 15.81966274 9.60655425 14 9 C14 8.34 14 7.68 14 7 C13.360625 6.896875 12.72125 6.79375 12.0625 6.6875 C7.93522674 5.76096927 3.99357051 4.38339371 0 3 C0 2.01 0 1.02 0 0 Z " fill="#797979" transform="translate(448,207)"/>
<path d="M0 0 C1 3 1 3 0.14453125 4.9453125 C-0.29503906 5.66460937 -0.73460937 6.38390625 -1.1875 7.125 C-6.16268334 15.59336274 -6.16268334 15.59336274 -8.625 25 C-8.74875 25.99 -8.8725 26.98 -9 28 C-9.66 28.33 -10.32 28.66 -11 29 C-10.8014043 20.83952201 -8.42541581 14.35642804 -5 7 C-4.34 7 -3.68 7 -3 7 C-2.87625 6.401875 -2.7525 5.80375 -2.625 5.1875 C-2 3 -2 3 0 0 Z " fill="#969696" transform="translate(140,325)"/>
<path d="M0 0 C0 0.66 0 1.32 0 2 C-1.24716797 2.48919922 -1.24716797 2.48919922 -2.51953125 2.98828125 C-3.60621094 3.42527344 -4.69289062 3.86226563 -5.8125 4.3125 C-6.89144531 4.74175781 -7.97039062 5.17101562 -9.08203125 5.61328125 C-11.73191638 6.87259748 -13.05182324 7.90432721 -15 10 C-15.66 10 -16.32 10 -17 10 C-17.2475 10.639375 -17.495 11.27875 -17.75 11.9375 C-19 14 -19 14 -21.125 14.75 C-22.053125 14.87375 -22.053125 14.87375 -23 15 C-20.8495813 10.81423518 -18.69470271 8.80259998 -14.6875 6.375 C-13.71167969 5.78332031 -12.73585937 5.19164062 -11.73046875 4.58203125 C-3.82222222 0 -3.82222222 0 0 0 Z " fill="#808080" transform="translate(165,310)"/>
<path d="M0 0 C3.96 0.33 7.92 0.66 12 1 C12 1.66 12 2.32 12 3 C12.71027344 3.04898438 13.42054688 3.09796875 14.15234375 3.1484375 C15.53099609 3.26058594 15.53099609 3.26058594 16.9375 3.375 C18.31228516 3.47941406 18.31228516 3.47941406 19.71484375 3.5859375 C20.84599609 3.79089844 20.84599609 3.79089844 22 4 C22.33 4.66 22.66 5.32 23 6 C20.29144546 5.6893306 17.58316612 5.37652255 14.875 5.0625 C13.73417969 4.93198242 13.73417969 4.93198242 12.5703125 4.79882812 C8.35670423 4.3084513 4.178805 3.74097022 0 3 C0 2.01 0 1.02 0 0 Z " fill="#919191" transform="translate(394,193)"/>
<path d="M0 0 C0 3 0 3 -2.1875 5.5625 C-4.81277706 7.83774012 -6.72443519 8.97053677 -10 10 C-10 10.66 -10 11.32 -10 12 C-11.43554025 12.50559908 -12.8735202 13.0042749 -14.3125 13.5 C-15.11300781 13.7784375 -15.91351562 14.056875 -16.73828125 14.34375 C-19 15 -19 15 -22 15 C-22 14.34 -22 13.68 -22 13 C-21.443125 12.84144531 -20.88625 12.68289063 -20.3125 12.51953125 C-12.11635803 10.01361622 -5.79046775 6.3333241 0 0 Z " fill="#7F7F7F" transform="translate(704,402)"/>
<path d="M0 0 C0.66 0.33 1.32 0.66 2 1 C1.73445312 1.65484375 1.46890625 2.3096875 1.1953125 2.984375 C-1.49070116 9.92487745 -3.02249542 16.63012998 -4 24 C-4.33 24 -4.66 24 -5 24 C-5.37743309 15.99003104 -5.07378757 8.51526961 -2 1 C-1.34 0.67 -0.68 0.34 0 0 Z " fill="#8C8C8C" transform="translate(611,345)"/>
<path d="M0 0 C20.53191489 -0.57446809 20.53191489 -0.57446809 30 3 C30 3.99 30 4.98 30 6 C27.69 5.67 25.38 5.34 23 5 C23 4.34 23 3.68 23 3 C15.41 2.34 7.82 1.68 0 1 C0 0.67 0 0.34 0 0 Z " fill="#525252" transform="translate(659,307)"/>
<path d="M0 0 C3.40858586 3.40858586 3.93008394 8.32201465 4.125 13 C4.08375 13.66 4.0425 14.32 4 15 C4.66 15 5.32 15 6 15 C6.50559908 16.43554025 7.0042749 17.8735202 7.5 19.3125 C7.7784375 20.11300781 8.056875 20.91351563 8.34375 21.73828125 C9 24 9 24 9 27 C2.59451148 21.16023839 0.99112729 12.28112931 0 4 C0 2.68 0 1.36 0 0 Z " fill="#929292" transform="translate(117,363)"/>
<path d="M0 0 C0.33 0.66 0.66 1.32 1 2 C0.34 2 -0.32 2 -1 2 C-1 2.66 -1 3.32 -1 4 C-6.75 7 -6.75 7 -9 7 C-9 7.66 -9 8.32 -9 9 C-10.64453125 10.65625 -10.64453125 10.65625 -12.8125 12.5 C-13.52019531 13.1084375 -14.22789062 13.716875 -14.95703125 14.34375 C-17 16 -17 16 -20 18 C-18.46757679 14.55204777 -16.55468299 11.7800962 -14 9 C-11.8125 8.375 -11.8125 8.375 -10 8 C-9.67 7.01 -9.34 6.02 -9 5 C-5.9375 3.8125 -5.9375 3.8125 -3 3 C-3 2.34 -3 1.68 -3 1 C-2.01 0.67 -1.02 0.34 0 0 Z " fill="#828282" transform="translate(647,324)"/>
<path d="M0 0 C0.33 0 0.66 0 1 0 C1.35585949 5.57513198 0.84010246 11.06161289 -2 16 C-3.90625 16.91015625 -3.90625 16.91015625 -6 17 C-8.33370072 15.63510623 -10.00594554 13.8580962 -12 12 C-11.67 11.34 -11.34 10.68 -11 10 C-10.236875 10.639375 -9.47375 11.27875 -8.6875 11.9375 C-6.11753287 14.14232781 -6.11753287 14.14232781 -3 15 C-2.01 10.05 -1.02 5.1 0 0 Z " fill="#939393" transform="translate(24,300)"/>
<path d="M0 0 C0 0.66 0 1.32 0 2 C-7.74618484 4.0384697 -14.98051926 5.14069264 -23 5 C-23 4.67 -23 4.34 -23 4 C-20.69 4 -18.38 4 -16 4 C-16 3.34 -16 2.68 -16 2 C-13.70858188 1.66496236 -11.41685737 1.33201958 -9.125 1 C-7.21074219 0.7215625 -7.21074219 0.7215625 -5.2578125 0.4375 C-2 0 -2 0 0 0 Z " fill="#656565" transform="translate(61,249)"/>
<path d="M0 0 C1.32 0.33 2.64 0.66 4 1 C4 1.66 4 2.32 4 3 C6.97 3.99 9.94 4.98 13 6 C13 6.66 13 7.32 13 8 C14.7015625 8.433125 14.7015625 8.433125 16.4375 8.875 C17.613125 9.24625 18.78875 9.6175 20 10 C20.33 10.66 20.66 11.32 21 12 C17.44219804 11.39009109 14.3171411 10.4216319 11 9 C11 8.34 11 7.68 11 7 C9.948125 6.8453125 9.948125 6.8453125 8.875 6.6875 C5.60862353 5.90640997 2.9528148 4.57941257 0 3 C0 2.01 0 1.02 0 0 Z " fill="#878787" transform="translate(481,222)"/>
<path d="M0 0 C4.41273688 1.39267228 6.70428868 3.43068888 9.75 6.875 C10.52859375 7.73867188 11.3071875 8.60234375 12.109375 9.4921875 C13.85553945 11.80838084 14.60562048 13.17361346 15 16 C11.15767217 14.71922406 10.99117024 13.44625619 9 10 C6.18022389 6.45720438 3.26144598 3.14065169 0 0 Z " fill="#929292" transform="translate(765,308)"/>
<path d="M0 0 C-2.48786268 2.48786268 -3.94044337 2.51462837 -7.375 3.0625 C-11.31406441 3.68375305 -11.31406441 3.68375305 -15.1640625 4.68359375 C-17 5 -17 5 -20 3 C-17.60530271 2.49395076 -15.20948283 1.99500483 -12.8125 1.5 C-12.13896484 1.35691406 -11.46542969 1.21382813 -10.77148438 1.06640625 C-7.12490207 0.31930158 -3.72351043 -0.17352282 0 0 Z " fill="#727272" transform="translate(105,394)"/>
<path d="M0 0 C0.33 0.99 0.66 1.98 1 3 C-2.75 6 -2.75 6 -5 6 C-5 6.66 -5 7.32 -5 8 C-6.98 8.33 -8.96 8.66 -11 9 C-10.4375 7.1875 -10.4375 7.1875 -9 5 C-6.69747517 3.93097061 -4.3627974 2.92824183 -2 2 C-1.34 1.34 -0.68 0.68 0 0 Z " fill="#717171" transform="translate(799,406)"/>
<path d="M0 0 C0.90105469 0.00902344 1.80210937 0.01804687 2.73046875 0.02734375 C3.41753906 0.03894531 4.10460937 0.05054688 4.8125 0.0625 C4.8125 0.7225 4.8125 1.3825 4.8125 2.0625 C1.81769083 2.9348412 -0.82325911 3.17079766 -3.9375 3.125 C-4.73671875 3.11597656 -5.5359375 3.10695313 -6.359375 3.09765625 C-6.96265625 3.08605469 -7.5659375 3.07445312 -8.1875 3.0625 C-8.1875 2.4025 -8.1875 1.7425 -8.1875 1.0625 C-5.17259443 0.05753148 -3.14568308 -0.04085303 0 0 Z " fill="#414141" transform="translate(783.1875,412.9375)"/>
<path d="M0 0 C2.19921875 -0.3359375 2.19921875 -0.3359375 5 0 C7.45703125 2.3359375 7.45703125 2.3359375 9.8125 5.375 C10.60269531 6.37273437 11.39289062 7.37046875 12.20703125 8.3984375 C14 11 14 11 14 13 C9.76237672 11.58745891 8.89079247 8.86602106 6.6953125 5.12890625 C4.69154849 2.61265882 3.03351823 1.94090481 0 1 C0 0.67 0 0.34 0 0 Z " fill="#A9A9A9" transform="translate(36,223)"/>
<path d="M0 0 C1.98 0.99 1.98 0.99 4 2 C4 2.66 4 3.32 4 4 C4.66 4 5.32 4 6 4 C6.66 6.97 7.32 9.94 8 13 C5.61318325 10.61318325 4.05776184 8.7414492 2.3125 5.9375 C1.87550781 5.24527344 1.43851563 4.55304688 0.98828125 3.83984375 C0 2 0 2 0 0 Z " fill="#888888" transform="translate(715,330)"/>
<path d="M0 0 C5.42039575 -0.40652968 9.07015675 0.96006486 14 3 C14 3.33 14 3.66 14 4 C12.22880197 3.85866501 10.45804713 3.71176792 8.6875 3.5625 C7.70136719 3.48128906 6.71523438 3.40007812 5.69921875 3.31640625 C3 3 3 3 0 2 C0 1.34 0 0.68 0 0 Z " fill="#5D5D5D" transform="translate(649,267)"/>
<path d="M0 0 C0.33 0 0.66 0 1 0 C1.10477512 5.78591511 0.99250545 11.29309366 0 17 C-0.66 16.67 -1.32 16.34 -2 16 C-2.09765625 9.84765625 -2.09765625 9.84765625 -2 8 C-1.67 7.67 -1.34 7.34 -1 7 C-0.63239269 4.67182036 -0.29758419 2.3381615 0 0 Z " fill="#434343" transform="translate(131,346)"/>
<path d="M0 0 C0 0.66 0 1.32 0 2 C-1.74468372 2.70088156 -3.49601161 3.38524009 -5.25 4.0625 C-6.22453125 4.44535156 -7.1990625 4.82820312 -8.203125 5.22265625 C-11.04007395 6.01113787 -12.29409552 6.02437812 -15 5 C-14.34 5 -13.68 5 -13 5 C-13 4.34 -13 3.68 -13 3 C-11.2092015 2.49689942 -9.41733089 1.99761372 -7.625 1.5 C-6.62726563 1.2215625 -5.62953125 0.943125 -4.6015625 0.65625 C-2 0 -2 0 0 0 Z " fill="#828282" transform="translate(166,220)"/>
<path d="M0 0 C0.33 0.99 0.66 1.98 1 3 C-7.07744875 9.70387244 -7.07744875 9.70387244 -13 10 C-12.01 9.34 -11.02 8.68 -10 8 C-8.63952264 7.00860264 -7.2857143 6.00801069 -5.9375 5 C-5.24527344 4.484375 -4.55304688 3.96875 -3.83984375 3.4375 C-1.90369606 1.98492967 -1.90369606 1.98492967 0 0 Z " fill="#737373" transform="translate(212,392)"/>
<path d="M0 0 C1.32 0.33 2.64 0.66 4 1 C4 1.66 4 2.32 4 3 C7.3 3.99 10.6 4.98 14 6 C14 6.33 14 6.66 14 7 C8.7094723 7.66131596 5.84303382 6.04553852 1.5390625 3.2890625 C1.03117188 2.86367188 0.52328125 2.43828125 0 2 C0 1.34 0 0.68 0 0 Z " fill="#999999" transform="translate(545,256)"/>
<path d="M0 0 C2.66666667 2 5.33333333 4 8 6 C8.74765625 6.51949219 9.4953125 7.03898437 10.265625 7.57421875 C10.83796875 8.04472656 11.4103125 8.51523437 12 9 C12 9.66 12 10.32 12 11 C2.9 6.8 2.9 6.8 0.625 2.25 C0.41875 1.5075 0.2125 0.765 0 0 Z " fill="#898989" transform="translate(142,390)"/>
<path d="M0 0 C0.66 0 1.32 0 2 0 C3.38442 1.96498322 4.71203834 3.97048465 6 6 C6.8971875 7.0828125 6.8971875 7.0828125 7.8125 8.1875 C8.204375 8.785625 8.59625 9.38375 9 10 C8.67 10.99 8.34 11.98 8 13 C4 8.25 4 8.25 4 6 C3.34 6 2.68 6 2 6 C1.34 4.02 0.68 2.04 0 0 Z " fill="#999999" transform="translate(50,236)"/>
<path d="M0 0 C0.33 0.66 0.66 1.32 1 2 C-0.12019531 2.04898438 -1.24039062 2.09796875 -2.39453125 2.1484375 C-3.86721203 2.22347856 -5.33986707 2.29902582 -6.8125 2.375 C-7.55048828 2.4059375 -8.28847656 2.436875 -9.04882812 2.46875 C-12.81893115 2.67346148 -14.79650741 2.86433827 -18 5 C-17.67 3.68 -17.34 2.36 -17 1 C-8.585 0.505 -8.585 0.505 0 0 Z " fill="#2C2C2C" transform="translate(32,203)"/>
<path d="M0 0 C0 0.66 0 1.32 0 2 C-5.94 2.495 -5.94 2.495 -12 3 C-12 2.34 -12 1.68 -12 1 C-7.9472484 0.01751476 -4.16138263 -0.08159574 0 0 Z " fill="#696969" transform="translate(272,193)"/>
<path d="M0 0 C4.92980953 2.00844092 8.09403383 5.64105074 11 10 C6.56156561 8.60506348 4.0565036 6.48101799 1 3 C0.67 2.01 0.34 1.02 0 0 Z " fill="#828282" transform="translate(631,402)"/>
<path d="M0 0 C0.66 0.33 1.32 0.66 2 1 C-2.27828642 4.25149768 -5.73829306 6.58832253 -11 8 C-11 7.34 -11 6.68 -11 6 C-9.21385682 4.96953278 -7.42089982 3.95086764 -5.625 2.9375 C-4.62726562 2.36902344 -3.62953125 1.80054688 -2.6015625 1.21484375 C-1.74304688 0.81394531 -0.88453125 0.41304688 0 0 Z " fill="#898989" transform="translate(643,312)"/>
<path d="M0 0 C0.99 0.33 1.98 0.66 3 1 C2.01 1.33 1.02 1.66 0 2 C-0.309375 2.66 -0.61875 3.32 -0.9375 4 C-2 6 -2 6 -4.125 6.75 C-5.053125 6.87375 -5.053125 6.87375 -6 7 C-4.19587357 3.73539027 -3.16605307 2.11070205 0 0 Z " fill="#7A7A7A" transform="translate(148,318)"/>
<path d="M0 0 C2.475 0.495 2.475 0.495 5 1 C5 1.66 5 2.32 5 3 C7.31 3.66 9.62 4.32 12 5 C12 5.66 12 6.32 12 7 C10.56068883 6.54738642 9.12361001 6.08767021 7.6875 5.625 C6.88699219 5.36976563 6.08648438 5.11453125 5.26171875 4.8515625 C3 4 3 4 0 2 C0 1.34 0 0.68 0 0 Z " fill="#838383" transform="translate(735,290)"/>
<path d="M0 0 C3.01217112 0.64449607 5.51655836 1.65022182 8.25 3.0625 C8.95640625 3.42472656 9.6628125 3.78695312 10.390625 4.16015625 C10.92171875 4.43730469 11.4528125 4.71445313 12 5 C11.67 5.66 11.34 6.32 11 7 C7.37 5.35 3.74 3.7 0 2 C0 1.34 0 0.68 0 0 Z " fill="#939393" transform="translate(81,208)"/>
<path d="M0 0 C2.64 0.33 5.28 0.66 8 1 C8 1.66 8 2.32 8 3 C8.66 3.33 9.32 3.66 10 4 C6.7 3.67 3.4 3.34 0 3 C0 2.01 0 1.02 0 0 Z " fill="#606060" transform="translate(394,193)"/>
<path d="M0 0 C2.9156164 3.54039134 5.50127818 7.1626772 8 11 C7.67 11.66 7.34 12.32 7 13 C3.02814384 8.894534 0.29123499 5.97031739 0 0 Z " fill="#AFAFAF" transform="translate(134,378)"/>
<path d="M0 0 C1.32 0.33 2.64 0.66 4 1 C4 1.66 4 2.32 4 3 C5.98 3.66 7.96 4.32 10 5 C10 5.99 10 6.98 10 8 C8.32819726 7.05065487 6.66266064 6.09026687 5 5.125 C4.071875 4.59132813 3.14375 4.05765625 2.1875 3.5078125 C1.465625 3.01023437 0.74375 2.51265625 0 2 C0 1.34 0 0.68 0 0 Z " fill="#8A8A8A" transform="translate(688,324)"/>
<path d="M0 0 C3.81684226 1.55500981 6.19195732 4.03595495 9 7 C8.67 7.99 8.34 8.98 8 10 C6.66070495 8.71451591 5.32871357 7.42141845 4 6.125 C2.88625 5.04605469 2.88625 5.04605469 1.75 3.9453125 C0 2 0 2 0 0 Z " fill="#8E8E8E" transform="translate(209,318)"/>
<path d="M0 0 C-2.90600261 1.25664978 -4.79604584 2 -8 2 C-8 2.66 -8 3.32 -8 4 C-9.32 4.33 -10.64 4.66 -12 5 C-12 4.01 -12 3.02 -12 2 C-10.75579353 1.4654744 -9.50429064 0.94791389 -8.25 0.4375 C-7.55390625 0.14746094 -6.8578125 -0.14257812 -6.140625 -0.44140625 C-3.69987216 -1.07831803 -2.3596345 -0.80248831 0 0 Z " fill="#7F7F7F" transform="translate(163,299)"/>
<path d="M0 0 C0.99 0.495 0.99 0.495 2 1 C2 1.66 2 2.32 2 3 C2.66 3 3.32 3 4 3 C5.6875 5.375 5.6875 5.375 7 8 C6.67 8.66 6.34 9.32 6 10 C4.5 8.625 4.5 8.625 3 7 C3 6.34 3 5.68 3 5 C2.01 4.67 1.02 4.34 0 4 C0 2.68 0 1.36 0 0 Z " fill="#7B7B7B" transform="translate(80,236)"/>
<path d="M0 0 C0.66 0.33 1.32 0.66 2 1 C-3.14285714 7.57142857 -3.14285714 7.57142857 -7 9 C-5.44499019 5.18315774 -2.96404505 2.80804268 0 0 Z " fill="#818181" transform="translate(136,312)"/>
<path d="M0 0 C0.33 0.66 0.66 1.32 1 2 C1.66 2.28875 2.32 2.5775 3 2.875 C5 4 5 4 5.75 6.125 C5.8325 6.74375 5.915 7.3625 6 8 C2.00003714 6.66667905 1.16217663 4.5042173 -1 1 C-0.67 0.67 -0.34 0.34 0 0 Z " fill="#7A7A7A" transform="translate(794,393)"/>
<path d="M0 0 C0.33 1.32 0.66 2.64 1 4 C0.34 4 -0.32 4 -1 4 C-1.268125 4.639375 -1.53625 5.27875 -1.8125 5.9375 C-3 8 -3 8 -6 9 C-6 8.34 -6 7.68 -6 7 C-5.34 7 -4.68 7 -4 7 C-3.71125 6.401875 -3.4225 5.80375 -3.125 5.1875 C-2 3 -2 3 0 0 Z " fill="#8A8A8A" transform="translate(219,384)"/>
<path d="M0 0 C0.66 0.33 1.32 0.66 2 1 C0.515 4.465 0.515 4.465 -1 8 C-1.66 8 -2.32 8 -3 8 C-2.74438677 5.6568787 -2.40729228 3.32156597 -2 1 C-1.34 0.67 -0.68 0.34 0 0 Z " fill="#969696" transform="translate(611,345)"/>
<path d="M0 0 C1.32 0 2.64 0 4 0 C4 0.99 4 1.98 4 3 C-0.455 3.495 -0.455 3.495 -5 4 C-4.34 3.34 -3.68 2.68 -3 2 C-2.01 2 -1.02 2 0 2 C0 1.34 0 0.68 0 0 Z " fill="#4B4B4B" transform="translate(233,199)"/>
<path d="M0 0 C-0.33 0.99 -0.66 1.98 -1 3 C-3.06640625 3.73046875 -3.06640625 3.73046875 -5.5625 4.1875 C-6.38878906 4.34605469 -7.21507812 4.50460937 -8.06640625 4.66796875 C-9.02353516 4.83232422 -9.02353516 4.83232422 -10 5 C-8.28489314 1.56978628 -3.75681361 0 0 0 Z " fill="#8B8B8B" transform="translate(659,320)"/>
<path d="M0 0 C5.57142857 5.14285714 5.57142857 5.14285714 6 9 C3 8 3 8 1.3125 5.625 C0 3 0 3 0 0 Z " fill="#8C8C8C" transform="translate(774,315)"/>
<path d="M0 0 C0 0.99 0 1.98 0 3 C-1.98 3.33 -3.96 3.66 -6 4 C-6 3.01 -6 2.02 -6 1 C-3.92446352 0.4465236 -2.15634036 0 0 0 Z " fill="#454545" transform="translate(652,309)"/>
<path d="M0 0 C1.98 0 3.96 0 6 0 C6 0.66 6 1.32 6 2 C5.01 2.33 4.02 2.66 3 3 C2.67 3.66 2.34 4.32 2 5 C1.34 4.34 0.68 3.68 0 3 C0 2.01 0 1.02 0 0 Z " fill="#676767" transform="translate(73,226)"/>
</svg>
