<?xml version="1.0" standalone="no"?>
<!DOCTYPE svg PUBLIC "-//W3C//DTD SVG 20010904//EN"
 "http://www.w3.org/TR/2001/REC-SVG-20010904/DTD/svg10.dtd">
<svg version="1.0" xmlns="http://www.w3.org/2000/svg"
 width="512.000000pt" height="512.000000pt" viewBox="0 0 512.000000 512.000000"
 preserveAspectRatio="xMidYMid meet">

<g transform="translate(0.000000,512.000000) scale(0.100000,-0.100000)"
fill="#808080" stroke="none">
<path d="M144 4570 c-12 -4 -31 -21 -43 -36 l-21 -27 0 -1761 c0 -1494 2
-1769 15 -1815 51 -195 221 -350 415 -381 43 -6 638 -10 1735 -10 1834 0 1744
-3 1873 61 70 34 94 63 94 113 0 44 -16 72 -52 91 -41 21 -52 19 -128 -18
l-67 -32 -1730 0 -1730 0 -43 23 c-108 58 -172 159 -174 275 -1 47 54 313 231
1107 127 575 239 1075 247 1113 l16 67 1959 0 c1737 0 1959 -2 1959 -15 0 -8
-23 -116 -50 -240 -47 -213 -49 -227 -35 -261 28 -68 126 -79 172 -20 12 14
43 138 87 338 l69 316 -19 33 c-30 52 -62 58 -296 58 l-208 1 0 274 c0 260 -1
275 -20 299 -12 15 -38 31 -58 37 -24 6 -466 10 -1302 10 l-1264 0 -196 194
c-107 107 -208 199 -223 205 -34 13 -1181 14 -1213 1z m1321 -391 c105 -105
202 -197 217 -205 23 -12 211 -14 1278 -14 l1250 0 0 -205 0 -205 -1774 -2
-1774 -3 -26 -24 c-14 -13 -30 -38 -35 -55 -6 -17 -76 -328 -156 -691 -80
-363 -150 -669 -155 -680 -5 -12 -9 447 -9 1128 l-1 1147 498 0 497 0 190
-191z"/>
<path d="M3982 2809 c-189 -24 -392 -127 -533 -270 -394 -399 -345 -1055 105
-1396 74 -56 236 -134 331 -159 108 -29 362 -27 470 4 318 91 567 340 657 657
20 69 23 103 22 245 0 150 -3 173 -27 253 -51 166 -127 290 -252 412 -203 199
-485 292 -773 254z m333 -229 c75 -24 152 -60 199 -93 l28 -20 -503 -503
c-386 -386 -506 -501 -516 -492 -24 20 -71 113 -98 193 -37 108 -45 259 -21
371 60 277 278 494 561 560 87 20 261 12 350 -16z m425 -337 c73 -121 108
-295 89 -444 -21 -166 -98 -319 -222 -435 -125 -118 -251 -176 -421 -196 -152
-18 -312 19 -452 103 l-54 33 502 503 c277 277 507 502 512 500 5 -2 25 -30
46 -64z"/>
</g>
</svg>
