<?xml version="1.0" standalone="no"?>
<!DOCTYPE svg PUBLIC "-//W3C//DTD SVG 20010904//EN"
 "http://www.w3.org/TR/2001/REC-SVG-20010904/DTD/svg10.dtd">
<svg version="1.0" xmlns="http://www.w3.org/2000/svg"
 width="512.000000pt" height="512.000000pt" viewBox="0 0 512.000000 512.000000"
 preserveAspectRatio="xMidYMid meet">

<g transform="translate(0.000000,512.000000) scale(0.100000,-0.100000)"
fill="#FFFFFF" stroke="none">
<path d="M2375 4900 c-791 -70 -1478 -511 -1864 -1197 -359 -639 -393 -1420
-91 -2103 227 -514 666 -953 1180 -1180 791 -350 1686 -248 2379 272 182 137
399 367 529 560 453 677 523 1534 187 2279 -241 536 -709 985 -1253 1203 -334
134 -729 196 -1067 166z m490 -444 c202 -36 347 -83 524 -167 400 -191 708
-500 901 -901 458 -955 56 -2096 -900 -2557 -866 -418 -1907 -127 -2437 680
-143 218 -238 464 -290 749 -24 133 -24 467 0 600 38 210 83 352 167 528 287
600 847 998 1520 1081 107 14 408 6 515 -13z"/>
<path d="M2460 4028 c-25 -14 -58 -44 -75 -67 -29 -42 -30 -45 -33 -186 l-3
-144 -57 -6 c-221 -24 -411 -153 -512 -346 -56 -108 -73 -189 -67 -324 3 -85
10 -125 29 -177 70 -187 207 -324 396 -396 65 -25 75 -26 377 -32 349 -6 355
-7 420 -82 89 -105 57 -260 -66 -322 l-53 -26 -468 0 c-401 0 -474 -2 -506
-16 -79 -33 -132 -110 -132 -194 0 -88 38 -152 115 -193 37 -21 57 -22 282
-25 l242 -3 3 -143 c3 -137 4 -144 30 -182 15 -21 44 -50 65 -64 31 -21 48
-25 113 -25 65 0 82 4 113 25 21 14 50 43 65 64 26 38 27 45 30 181 l3 143 77
11 c163 24 300 95 402 209 62 68 134 212 151 300 18 95 7 252 -23 334 -70 187
-207 324 -396 396 -65 25 -75 26 -377 32 -349 6 -355 7 -420 82 -89 105 -57
260 66 322 l53 26 470 0 c437 0 474 2 511 19 77 36 125 111 125 196 0 83 -39
148 -115 188 -37 21 -57 22 -282 25 l-242 3 -3 143 c-3 137 -4 144 -30 182
-44 62 -90 88 -167 92 -55 3 -74 -1 -111 -20z"/>
</g>
</svg>
