<?xml version="1.0" standalone="no"?>
<!DOCTYPE svg PUBLIC "-//W3C//DTD SVG 20010904//EN"
 "http://www.w3.org/TR/2001/REC-SVG-20010904/DTD/svg10.dtd">
<svg version="1.0" xmlns="http://www.w3.org/2000/svg"
 width="512.000000pt" height="512.000000pt" viewBox="0 0 512.000000 512.000000"
 preserveAspectRatio="xMidYMid meet">

<g transform="translate(0.000000,512.000000) scale(0.100000,-0.100000)"
fill="#FFFFFF" stroke="none">
<path d="M70 4843 c-37 -13 -40 -33 -40 -240 0 -257 -9 -243 160 -243 l120 0
0 -80 c0 -73 3 -83 25 -105 l24 -25 1001 0 1000 0 0 -339 0 -339 -121 -4 -121
-3 -34 -37 -34 -38 0 -504 c0 -495 0 -504 21 -530 36 -46 69 -56 184 -56 l105
0 0 -955 0 -955 -330 0 -330 0 0 325 0 325 53 0 c82 0 97 16 97 101 0 61 2 69
19 69 18 0 19 -13 23 -262 4 -248 5 -265 26 -305 65 -125 219 -125 281 0 44
90 40 320 -10 452 -25 66 -85 146 -138 181 l-39 25 -5 287 c-3 215 -8 300 -19
338 -40 134 -140 256 -239 291 l-49 18 0 61 0 61 49 7 c39 5 55 13 75 37 25
30 26 35 26 170 l0 139 -29 32 -29 33 -862 0 -862 0 -29 -33 -29 -32 0 -139
c0 -135 1 -140 26 -170 20 -24 36 -32 75 -37 l49 -7 0 -983 0 -984 -55 0 c-42
0 -60 -5 -75 -20 -24 -24 -26 -53 -4 -74 14 -14 258 -16 2533 -16 2427 0 2519
1 2534 18 42 46 3 92 -78 92 l-55 0 0 985 0 985 35 0 c19 0 46 5 60 12 46 21
55 54 55 203 l0 137 -29 29 -29 29 -862 0 -862 0 -29 -29 -29 -29 0 -144 c0
-120 3 -146 18 -164 24 -30 55 -44 96 -44 l36 0 0 -63 0 -63 -55 -23 c-74 -31
-144 -96 -184 -172 -59 -110 -63 -137 -69 -454 l-4 -290 -47 -30 c-59 -39
-116 -122 -144 -210 -18 -59 -22 -93 -22 -215 0 -168 9 -203 65 -254 48 -43
93 -53 146 -31 49 20 71 41 95 87 17 34 19 62 19 303 l0 265 25 0 c24 0 25 -2
25 -69 0 -89 11 -101 91 -101 l59 0 -2 -327 -3 -328 -330 0 -330 0 -3 957 -2
956 125 4 125 3 32 33 33 32 3 503 c2 490 2 503 -18 535 -30 49 -72 62 -195
62 l-105 0 0 340 0 340 1004 0 c1173 0 1049 -15 1055 124 l3 86 119 0 c168 0
159 -14 159 243 0 160 -3 207 -14 223 -14 19 -52 19 -2503 21 -1368 1 -2495
-1 -2503 -4z m4910 -243 l0 -130 -2420 0 -2420 0 0 130 0 130 2420 0 2420 0 0
-130z m-290 -290 l0 -50 -2130 0 -2130 0 0 50 0 50 2130 0 2130 0 0 -50z
m-2050 -500 l0 -340 -80 0 -80 0 0 340 0 340 80 0 80 0 0 -340z m318 -927 l2
-473 -400 0 -400 0 0 468 c0 258 3 472 7 475 4 4 182 6 397 5 l391 -3 3 -472z
m-1218 -318 l0 -95 -810 0 -810 0 0 95 0 95 810 0 810 0 0 -95z m3260 0 l0
-95 -810 0 -810 0 0 95 0 95 810 0 810 0 0 -95z m-3410 -1030 l0 -825 -660 0
-660 0 0 825 0 825 660 0 660 0 0 -825z m3260 0 l0 -825 -660 0 -660 0 0 825
0 825 660 0 660 0 0 -825z m-2210 -195 l0 -960 -80 0 -80 0 0 960 0 960 80 0
80 0 0 -960z m-849 711 c47 -48 61 -71 78 -126 19 -61 21 -92 21 -336 0 -262
0 -269 -20 -269 -18 0 -20 7 -20 66 0 95 -7 104 -85 104 l-65 0 0 310 c0 359
-4 349 91 251z m1629 -251 l0 -310 -65 0 c-78 0 -85 -9 -85 -104 0 -60 -2 -66
-21 -66 -20 0 -20 3 -17 288 l3 287 29 63 c29 63 112 152 142 152 12 0 14 -52
14 -310z m-1680 -535 c0 -108 -1 -115 -20 -115 -19 0 -20 7 -20 115 0 108 1
115 20 115 19 0 20 -7 20 -115z m1680 0 c0 -108 -1 -115 -20 -115 -19 0 -20 7
-20 115 0 108 1 115 20 115 19 0 20 -7 20 -115z m-1343 -194 c26 -53 28 -65
31 -218 4 -153 3 -162 -17 -182 -26 -26 -36 -26 -61 -1 -19 19 -20 33 -20 257
0 236 0 236 20 218 11 -10 32 -43 47 -74z m1028 -368 c-6 -24 -31 -53 -46 -53
-5 0 -18 9 -29 20 -18 18 -20 33 -20 165 0 162 14 225 67 294 l28 36 3 -220
c1 -121 0 -230 -3 -242z m-1517 -210 l-3 -108 -655 0 -655 0 -3 108 -3 107
661 0 661 0 -3 -107z m3260 0 l-3 -108 -655 0 -655 0 -3 108 -3 107 661 0 661
0 -3 -107z"/>
<path d="M2312 3204 c-26 -18 -29 -56 -6 -78 23 -24 485 -24 508 0 21 21 20
57 -2 77 -27 25 -466 25 -500 1z"/>
<path d="M2312 2924 c-26 -18 -29 -56 -6 -78 13 -14 50 -16 254 -16 258 0 270
2 270 55 0 50 -25 55 -270 55 -188 0 -229 -3 -248 -16z"/>
<path d="M2312 2644 c-26 -18 -29 -56 -6 -78 13 -14 50 -16 254 -16 258 0 270
2 270 55 0 50 -25 55 -270 55 -188 0 -229 -3 -248 -16z"/>
<path d="M466 2214 c-24 -23 -24 -459 0 -492 l15 -22 449 0 449 0 15 22 c13
19 16 60 16 246 0 135 -4 231 -10 243 -10 18 -26 19 -465 19 -399 0 -455 -2
-469 -16z m834 -249 l0 -155 -370 0 -370 0 0 155 0 155 370 0 370 0 0 -155z"/>
<path d="M467 1552 c-25 -27 -25 -456 -1 -490 14 -21 21 -22 168 -22 135 0
155 2 169 18 15 16 17 49 17 250 0 196 -2 233 -16 246 -13 13 -43 16 -168 16
-135 0 -155 -2 -169 -18z m243 -247 l0 -155 -75 0 -75 0 0 155 0 155 75 0 75
0 0 -155z"/>
<path d="M922 1558 c-20 -20 -14 -65 10 -82 19 -13 58 -16 230 -16 195 0 209
1 228 20 24 24 26 53 4 74 -13 14 -49 16 -238 16 -159 0 -225 -3 -234 -12z"/>
<path d="M972 1394 c-27 -18 -31 -84 -6 -108 36 -37 94 -4 94 54 0 52 -49 82
-88 54z"/>
<path d="M1140 1403 c-63 -23 -47 -133 20 -133 52 0 73 87 29 122 -22 19 -25
20 -49 11z"/>
<path d="M1281 1392 c-44 -35 -23 -122 29 -122 57 0 79 72 35 115 -29 30 -36
30 -64 7z"/>
<path d="M967 1222 c-23 -25 -22 -85 1 -105 59 -53 128 47 72 103 -25 25 -52
26 -73 2z"/>
<path d="M1120 1220 c-39 -39 -12 -120 39 -120 31 0 51 28 51 69 0 63 -50 91
-90 51z"/>
<path d="M1278 1223 c-8 -10 -18 -26 -21 -36 -7 -20 9 -68 26 -79 37 -23 87
13 87 62 0 56 -60 90 -92 53z"/>
<path d="M3720 2211 c-6 -12 -10 -110 -10 -249 0 -209 2 -230 18 -245 17 -15
64 -17 465 -17 l446 0 15 22 c24 33 24 469 0 492 -14 14 -70 16 -469 16 -439
0 -455 -1 -465 -19z m840 -246 l0 -155 -370 0 -370 0 0 155 0 155 370 0 370 0
0 -155z"/>
<path d="M3726 1554 c-22 -21 -20 -50 4 -74 19 -19 33 -20 228 -20 230 0 252
5 252 59 0 49 -7 51 -246 51 -189 0 -225 -2 -238 -16z"/>
<path d="M4316 1554 c-14 -13 -16 -50 -16 -248 0 -213 2 -234 18 -249 16 -14
43 -17 170 -17 145 0 152 1 166 22 13 19 16 60 16 249 0 206 -2 227 -18 242
-27 24 -312 25 -336 1z m244 -249 l0 -155 -75 0 -75 0 0 155 0 155 75 0 75 0
0 -155z"/>
<path d="M3775 1385 c-44 -43 -22 -115 35 -115 52 0 73 87 29 122 -28 23 -35
23 -64 -7z"/>
<path d="M3932 1394 c-24 -17 -30 -70 -12 -105 15 -27 64 -25 84 3 23 32 20
65 -9 93 -28 29 -33 30 -63 9z"/>
<path d="M4100 1403 c-40 -14 -52 -71 -24 -111 18 -26 56 -29 78 -6 25 24 21
90 -6 108 -24 17 -25 17 -48 9z"/>
<path d="M3770 1220 c-39 -39 -12 -120 39 -120 51 0 72 79 34 123 -21 23 -48
22 -73 -3z"/>
<path d="M3928 1223 c-23 -28 -28 -51 -17 -80 18 -48 67 -59 93 -21 45 64 -26
158 -76 101z"/>
<path d="M4080 1220 c-38 -38 -15 -120 34 -120 32 0 56 30 56 72 0 60 -51 87
-90 48z"/>
</g>
</svg>
