<?xml version="1.0" standalone="no"?>
<!DOCTYPE svg PUBLIC "-//W3C//DTD SVG 20010904//EN"
 "http://www.w3.org/TR/2001/REC-SVG-20010904/DTD/svg10.dtd">
<svg version="1.0" xmlns="http://www.w3.org/2000/svg"
 width="512.000000pt" height="512.000000pt" viewBox="0 0 512.000000 512.000000"
 preserveAspectRatio="xMidYMid meet">

<g transform="translate(0.000000,512.000000) scale(0.100000,-0.100000)"
fill="#FFFFFF" stroke="none">
<path d="M2330 5053 c-706 -72 -1339 -427 -1757 -986 -40 -54 -73 -95 -73 -90
0 4 -13 89 -28 189 -19 119 -35 193 -48 214 -65 110 -255 82 -283 -42 -6 -24
13 -173 63 -505 39 -260 74 -474 77 -477 5 -5 797 112 905 134 51 11 97 47
123 97 16 31 14 99 -4 133 -19 36 -73 78 -111 86 -16 3 -114 -6 -218 -21 -104
-14 -197 -25 -208 -23 -15 2 -5 21 61 108 350 465 858 769 1432 856 156 24
444 24 599 0 419 -64 783 -228 1102 -495 335 -281 595 -703 701 -1141 30 -121
57 -296 57 -365 l0 -48 118 7 c64 4 137 9 161 13 l44 6 -7 91 c-19 277 -113
604 -252 887 -302 608 -825 1060 -1464 1263 -132 42 -361 90 -502 105 -90 10
-406 13 -488 4z"/>
<path d="M2365 4009 c-178 -23 -391 -98 -550 -193 -355 -214 -596 -552 -688
-966 -29 -131 -31 -433 -3 -560 45 -210 115 -377 226 -543 214 -320 532 -534
919 -619 132 -29 434 -32 561 -5 186 40 325 93 471 180 361 213 603 558 695
987 26 120 26 420 0 540 -45 210 -115 377 -226 543 -310 462 -850 707 -1405
636z m386 -325 c546 -94 949 -571 949 -1124 0 -553 -403 -1030 -949 -1124
-617 -106 -1209 314 -1315 933 -118 689 414 1324 1115 1330 58 1 148 -6 200
-15z"/>
<path d="M2400 3401 l0 -78 -68 -6 c-106 -9 -178 -41 -243 -108 -81 -82 -100
-138 -107 -305 -5 -146 7 -244 39 -307 34 -65 103 -132 172 -163 l62 -29 270
-3 c237 -2 272 -5 283 -19 15 -21 17 -216 2 -244 -10 -18 -24 -19 -250 -19
-273 0 -260 -4 -260 89 l0 51 -161 0 -162 0 6 -87 c8 -123 35 -190 106 -262
65 -67 137 -99 243 -108 l68 -6 0 -78 0 -79 160 0 160 0 0 80 0 80 43 0 c111
1 218 48 286 127 64 74 82 135 88 289 6 145 -6 244 -38 307 -34 65 -103 132
-172 163 l-62 29 -270 3 c-171 2 -274 7 -282 14 -16 13 -18 220 -3 249 10 18
24 19 250 19 273 0 260 4 260 -89 l0 -51 161 0 162 0 -6 89 c-8 109 -34 181
-88 244 -68 79 -175 126 -286 127 l-43 0 0 80 0 80 -160 0 -160 0 0 -79z"/>
<path d="M201 2513 l-124 -4 6 -122 c24 -483 227 -999 553 -1407 86 -108 285
-306 393 -390 284 -222 622 -389 956 -471 186 -45 333 -62 565 -62 474 -1 898
118 1310 366 232 140 533 412 692 624 l76 102 6 -37 c3 -20 13 -91 21 -157 9
-66 21 -134 26 -152 13 -42 68 -89 120 -103 85 -23 176 42 186 133 5 42 -124
934 -137 950 -10 12 -920 -130 -958 -150 -46 -23 -82 -88 -82 -145 0 -60 32
-106 93 -137 l48 -24 225 35 c123 19 224 33 224 31 0 -9 -105 -158 -158 -224
-33 -41 -113 -126 -178 -189 -515 -499 -1230 -713 -1914 -574 -305 62 -611
200 -867 391 -510 379 -842 984 -881 1605 l-7 113 -35 1 c-19 0 -91 -1 -159
-3z"/>
</g>
</svg>
