<?xml version="1.0" standalone="no"?>
<!DOCTYPE svg PUBLIC "-//W3C//DTD SVG 20010904//EN"
 "http://www.w3.org/TR/2001/REC-SVG-20010904/DTD/svg10.dtd">
<svg version="1.0" xmlns="http://www.w3.org/2000/svg"
 width="512.000000pt" height="512.000000pt" viewBox="0 0 512.000000 512.000000"
 preserveAspectRatio="xMidYMid meet">

<g transform="translate(0.000000,512.000000) scale(0.100000,-0.100000)"
fill="#FFFFFF" stroke="none">
<path d="M2410 4146 c-333 -71 -572 -313 -636 -644 -50 -259 39 -527 235 -715
79 -75 80 -77 53 -83 -117 -26 -199 -54 -291 -100 l-106 -53 -60 42 c-63 44
-205 107 -242 107 -31 0 -29 6 15 55 195 211 185 548 -23 758 -218 220 -569
221 -789 1 -209 -210 -220 -547 -24 -759 44 -48 46 -55 18 -55 -40 0 -179 -61
-246 -109 -124 -88 -213 -199 -263 -330 -43 -112 -54 -201 -49 -406 l3 -180
34 -63 c38 -70 69 -100 145 -140 l51 -27 481 -3 481 -3 5 -90 c5 -78 11 -100
42 -163 43 -88 102 -146 194 -189 l67 -32 1055 0 1055 0 67 32 c92 43 151 101
194 189 31 63 37 85 42 163 l5 90 481 3 481 3 63 34 c70 38 100 70 140 145 25
49 27 59 30 231 5 206 -6 294 -49 406 -50 131 -139 242 -263 330 -67 48 -206
109 -246 109 -27 0 -25 12 6 41 43 39 101 135 126 207 30 88 32 249 4 332 -72
214 -243 361 -455 392 -353 52 -668 -242 -638 -596 11 -121 60 -236 139 -321
44 -49 46 -55 16 -55 -38 0 -179 -63 -243 -107 l-60 -42 -107 54 c-93 45 -174
73 -290 99 -27 6 -27 7 48 78 379 360 324 962 -114 1249 -74 49 -142 78 -242
106 -78 21 -260 26 -340 9z m285 -161 c216 -45 409 -223 478 -440 18 -57 22
-93 22 -190 -1 -104 -5 -130 -27 -193 -37 -104 -83 -176 -158 -252 -76 -76
-167 -132 -265 -163 -99 -31 -271 -31 -370 0 -163 52 -309 175 -383 323 -95
189 -95 390 -2 576 132 262 417 399 705 339z m-1571 -503 c91 -42 149 -100
194 -190 35 -72 37 -81 37 -172 0 -91 -2 -100 -37 -172 -45 -91 -103 -147
-196 -191 -61 -29 -76 -32 -162 -32 -86 0 -101 3 -160 31 -95 46 -153 101
-197 192 -36 72 -38 81 -38 171 0 87 3 102 32 163 40 85 97 147 172 186 78 42
122 52 213 48 61 -3 92 -11 142 -34z m3200 0 c91 -42 149 -100 194 -190 35
-72 37 -81 37 -172 0 -91 -2 -100 -37 -172 -45 -91 -103 -147 -196 -191 -61
-29 -76 -32 -162 -32 -86 0 -101 3 -160 31 -95 46 -153 101 -197 192 -36 72
-38 81 -38 171 0 87 3 102 32 163 40 85 97 147 172 186 78 42 122 52 213 48
61 -3 92 -11 142 -34z m-2950 -950 c64 -24 141 -66 151 -82 4 -6 -20 -39 -52
-73 -173 -186 -273 -442 -273 -703 l0 -75 -469 3 c-456 3 -470 4 -497 24 -65
48 -69 60 -72 242 -4 201 7 271 58 378 71 147 230 272 385 303 28 5 196 8 380
7 312 -2 333 -3 389 -24z m1661 13 c334 -59 603 -307 697 -645 18 -64 22 -111
26 -318 5 -293 1 -314 -72 -387 -32 -32 -66 -55 -92 -63 -60 -17 -2008 -17
-2068 0 -55 16 -138 99 -154 154 -18 62 -16 439 3 549 62 353 352 646 701 709
118 21 838 22 959 1z m1471 4 c147 -26 305 -140 378 -272 65 -119 71 -150 71
-374 0 -221 -1 -227 -69 -277 -27 -20 -41 -21 -497 -24 l-469 -3 0 78 c0 99
-23 238 -53 328 -48 140 -143 298 -232 385 -25 24 -45 48 -45 52 0 25 158 97
240 111 56 10 620 6 676 -4z"/>
</g>
</svg>
